<svg version="1.1" id="Layer_1" xmlns="http://www.w3.org/2000/svg" xmlns:xlink="http://www.w3.org/1999/xlink" x="0px" y="0px"
	 width="100%" viewBox="0 0 496 496" enable-background="new 0 0 496 496" xml:space="preserve">
<path fill="#000000" opacity="1.000000" stroke="none" 
	d="
M264.005096,172.997238 
	C267.207794,176.060471 269.556610,179.638565 270.433502,184.037354 
	C270.948090,186.618896 272.669983,187.815598 274.906128,188.911789 
	C291.801025,197.193939 302.054199,210.477859 304.737671,229.269669 
	C307.594910,249.277908 295.302490,270.680481 275.189209,279.509949 
	C272.000122,280.909912 271.141785,278.592468 269.565979,276.785065 
	C257.148956,283.111053 245.108398,282.450836 233.283737,274.609802 
	C230.687317,279.767609 227.484344,278.400604 223.827621,276.130768 
	C211.321808,268.368164 201.745102,255.432999 200.412430,243.718048 
	C204.049545,245.865494 207.227982,248.935303 211.763885,247.136490 
	C214.030945,246.237457 215.850372,244.912445 217.063385,242.809525 
	C219.522232,238.546799 218.366333,232.980881 214.504456,230.342865 
	C209.811172,227.136978 204.744324,228.868286 199.241272,235.832962 
	C197.858795,230.401001 199.021393,225.436066 200.252106,220.558777 
	C203.569992,207.410217 211.659134,197.804382 223.074692,190.881088 
	C225.602127,189.348236 227.315659,187.894684 228.036606,184.649536 
	C229.601944,177.603577 234.019135,172.354660 240.784973,169.639069 
	C244.668564,168.080338 245.097137,165.758743 244.130264,162.178604 
	C241.923996,154.009338 235.494766,149.592972 227.704758,151.396774 
	C223.098541,152.463348 220.000748,155.384430 219.262360,160.175949 
	C218.576874,164.624268 219.699203,168.478073 224.037064,170.751877 
	C227.552383,172.594528 231.590652,171.517349 233.649277,168.221191 
	C235.950912,164.535919 234.371552,161.831879 229.731964,161.514191 
	C228.022308,162.464218 230.437286,164.542908 228.476135,165.519821 
	C226.186203,165.573334 225.503830,164.093231 225.584717,161.980301 
	C225.666351,159.847656 226.977371,158.615387 228.850418,158.030228 
	C231.259277,157.277649 233.506546,157.744476 235.274338,159.618530 
	C237.344803,161.813477 238.179352,164.408203 237.454361,167.422211 
	C236.345184,172.033371 231.978210,175.204849 226.983658,175.003342 
	C221.549133,174.784103 216.383377,169.740036 215.732727,164.017471 
	C214.851547,156.267487 219.716873,149.665527 227.570908,147.953766 
	C235.778442,146.164978 244.546951,151.561691 246.916367,159.923065 
	C247.413651,161.677872 247.665329,163.501831 248.042847,165.291245 
	C248.254379,166.293945 248.537781,167.355850 249.775894,167.409149 
	C251.362564,167.477432 251.572098,166.251785 251.697479,165.033051 
	C252.228333,159.871918 254.241486,155.430328 258.041351,151.830093 
	C263.550232,146.610626 272.309296,145.766571 278.838074,149.857361 
	C284.667358,153.509888 287.388672,160.801834 285.317566,167.219818 
	C282.267395,176.671814 273.475922,179.243652 264.217529,172.773605 
	C261.240814,167.704712 261.294373,163.391144 265.126617,159.492523 
	C267.110260,157.474487 269.608826,157.327728 272.097900,158.008575 
	C274.181183,158.578461 275.375854,160.287903 275.793884,162.361374 
	C276.214081,164.445740 275.180725,165.915131 273.276825,166.668900 
	C272.770203,166.869461 272.055969,166.545502 271.598419,166.484039 
	C270.555664,164.760956 273.098022,163.603058 271.680847,161.924545 
	C269.865265,160.801361 268.053040,160.946930 266.671967,162.935394 
	C265.363159,164.819778 264.936829,166.801453 266.208466,169.002823 
	C269.349701,174.440628 276.453400,174.790375 280.324890,169.633667 
	C284.349915,164.272476 283.017700,156.685150 277.396698,152.956696 
	C269.235748,147.543472 258.525940,151.936050 255.736877,161.820236 
	C254.666519,165.613541 254.913483,168.642151 259.411163,170.084595 
	C261.082001,170.620422 262.481720,172.001572 264.005096,172.997238 
M274.659302,224.117004 
	C277.655060,219.608917 277.803284,215.047409 275.061523,211.738007 
	C271.822754,207.828674 266.008972,207.108322 262.062927,210.127426 
	C258.025024,213.216888 257.176270,218.832611 260.107300,223.067337 
	C263.265289,227.630020 268.723633,228.251053 274.659302,224.117004 
M238.462509,259.931274 
	C239.615677,256.921997 241.844269,254.325867 242.209793,250.776703 
	C237.413528,249.387070 234.292572,251.199707 232.334579,255.196198 
	C230.461472,259.019470 231.708344,262.059296 234.889404,264.420013 
	C237.056229,263.749451 237.312988,261.944000 238.462509,259.931274 
M223.076035,202.505295 
	C225.925385,203.092606 227.854095,201.909256 229.101974,199.389618 
	C230.058990,197.457230 229.316315,195.819275 228.075104,194.408386 
	C226.696106,192.840912 224.774323,192.912292 223.018738,193.470917 
	C218.945404,194.767029 218.718170,198.541199 223.076035,202.505295 
M246.508728,196.551376 
	C247.202972,200.217514 249.128601,202.327591 253.069656,201.167282 
	C255.110779,200.566345 256.437012,198.878967 256.347534,196.674164 
	C256.261108,194.545776 255.134735,192.869141 252.901962,192.353378 
	C249.806870,191.638443 247.819656,193.059448 246.508728,196.551376 
M279.820740,251.460907 
	C278.562408,246.800171 276.179962,245.171265 273.150635,247.020233 
	C271.375427,248.103745 270.136078,249.709686 270.551086,251.941788 
	C270.908112,253.862137 272.114777,255.262634 274.102600,255.621933 
	C276.915405,256.130371 278.959412,255.158157 279.820740,251.460907 
M231.719666,219.320358 
	C229.177872,220.198151 228.597031,221.781448 230.406555,223.798218 
	C231.380295,224.883453 232.984085,225.093826 233.934235,223.835373 
	C235.461563,221.812500 235.036346,220.110840 231.719666,219.320358 
M284.752899,209.638504 
	C285.095184,212.137619 286.492310,213.242950 288.853424,212.203598 
	C290.387787,211.528183 291.042175,209.972946 289.830383,208.524170 
	C288.113556,206.471619 286.417114,207.062119 284.752899,209.638504 
M293.582703,241.371613 
	C295.938019,240.891846 297.287994,239.708786 295.946716,237.250504 
	C295.267395,236.005386 293.869202,235.303665 292.598602,236.383972 
	C290.684875,238.011093 290.769958,239.749985 293.582703,241.371613 
z"/>
<path fill="#000000" opacity="1.000000" stroke="none" 
	d="
M223.948242,338.024994 
	C233.440750,335.259186 234.721649,326.935394 235.855972,319.163330 
	C236.434082,315.202454 238.348236,312.432098 240.296738,309.455994 
	C241.427780,307.728485 243.275131,307.399963 245.129776,308.616608 
	C246.920853,309.791565 247.456116,311.321320 246.427048,313.322693 
	C244.299820,317.459839 242.494827,321.722443 241.195862,327.469208 
	C247.043167,323.852814 249.872360,318.860504 253.140640,314.308044 
	C254.205383,312.824921 254.991333,311.138977 256.080505,309.676697 
	C257.457520,307.827942 259.240540,307.277985 261.283081,308.713135 
	C263.072205,309.970245 263.348328,311.548401 262.348145,313.494965 
	C260.232025,317.613403 258.465332,321.868347 257.326904,327.022919 
	C261.740723,325.183441 263.832275,321.897217 265.662628,318.455505 
	C267.305939,315.365509 268.765106,312.171356 271.065857,309.496429 
	C272.577911,307.738464 274.433319,306.486450 276.705292,308.089722 
	C279.055664,309.748291 277.652100,311.553894 276.587708,313.280762 
	C273.719330,317.934509 270.979980,322.644409 270.004547,329.628052 
	C274.580536,324.855682 276.586487,320.005005 279.347931,315.686646 
	C280.244171,314.285065 280.957001,312.765839 281.859375,311.368683 
	C283.093872,309.457184 284.805145,308.648987 286.979950,309.742981 
	C289.204681,310.862152 288.614136,312.684662 288.031494,314.501129 
	C286.863770,318.141815 285.703644,321.785919 284.624329,325.453308 
	C284.307922,326.528473 284.015045,327.715149 285.375183,329.212555 
	C290.165497,323.798584 292.258270,317.267059 294.405823,310.728088 
	C294.964752,309.026337 293.893921,305.393921 297.513702,306.469147 
	C300.413025,307.330353 300.395782,310.048309 299.514160,312.754150 
	C297.328613,319.461823 294.291077,325.740173 290.092316,331.391510 
	C288.174835,333.972351 286.434052,337.323608 282.255341,336.393982 
	C279.558197,335.793945 278.066925,332.975342 277.370239,327.495483 
	C274.607697,330.320068 273.839966,334.901367 270.108276,336.100800 
	C265.258484,337.659546 264.203400,333.065765 262.049377,329.692841 
	C258.329193,332.636444 253.984711,334.596924 252.288635,339.639130 
	C251.513611,341.943237 250.073761,344.160767 248.477234,346.025177 
	C244.100021,351.136841 237.871521,350.452240 234.211472,344.662415 
	C228.569092,349.916534 222.751709,351.082520 220.047546,347.253845 
	C216.908615,342.809601 220.690414,340.726471 223.751770,338.214874 
	C223.988052,337.998901 223.948242,338.024994 223.948242,338.024994 
M249.288284,328.612091 
	C249.490387,327.837738 249.692490,327.063385 249.894592,326.289032 
	C246.058868,331.250641 238.623566,332.660156 236.362839,340.530090 
	C241.510101,336.665588 248.033234,336.117401 249.288284,328.612091 
z"/>
<path fill="#000000" opacity="1.000000" stroke="none" 
	d="
M224.005951,337.983276 
	C217.060104,338.647369 214.476578,335.552368 216.430786,328.788940 
	C217.021973,326.742920 217.795853,324.749664 218.884125,321.568726 
	C214.789536,326.170135 211.607880,330.035156 208.107727,333.586212 
	C205.369461,336.364319 202.195633,338.934845 198.041840,336.011414 
	C193.944626,333.127869 194.477859,329.359833 196.250504,325.341705 
	C199.022202,319.058960 203.124603,313.557312 206.425598,307.590698 
	C207.681473,305.320709 209.513733,303.235016 209.463791,300.370483 
	C203.595047,300.393921 199.357635,303.932098 193.055481,314.088806 
	C189.182556,313.058136 188.485718,310.224152 189.285248,306.884735 
	C191.112457,299.252869 202.923676,293.127167 210.235733,295.874969 
	C214.998947,297.664948 216.980072,301.602478 214.738800,306.254913 
	C211.999634,311.940948 208.653778,317.334045 205.589401,322.864441 
	C204.408813,324.995117 202.965836,327.041992 202.866074,329.945892 
	C205.586945,329.784424 206.881485,327.984955 208.306992,326.491821 
	C215.820129,318.622375 221.581345,309.426392 227.838898,300.605835 
	C228.896423,299.115143 229.958984,297.612152 231.173157,296.252319 
	C232.793594,294.437531 234.662354,294.637634 236.540741,295.937500 
	C238.603836,297.365204 238.676743,299.030487 237.382645,301.076874 
	C232.203262,309.267090 228.072739,317.985992 224.622360,327.025604 
	C223.562042,329.803528 222.047165,332.915100 226.854324,333.419342 
	C226.817871,335.658600 225.320923,336.381226 224.165375,337.755219 
	C223.948242,338.024994 223.988052,337.998901 224.005951,337.983276 
z"/>
<path fill="#000000" opacity="1.000000" stroke="none" 
	d="
M341.325684,295.497925 
	C343.613586,294.056030 345.464874,294.349762 346.901306,296.159241 
	C348.370880,298.010498 346.611237,299.165466 345.715393,300.470062 
	C340.794617,307.636139 336.782654,315.287903 333.768311,323.432526 
	C333.123291,325.175262 331.836823,327.001160 333.057281,329.381287 
	C338.805634,327.224457 340.004944,320.397247 344.903564,317.308533 
	C345.504120,318.110352 346.109314,318.617493 346.018280,318.840607 
	C343.280914,325.550323 339.465424,331.532898 333.175079,335.397064 
	C330.125641,337.270294 328.458405,336.206635 324.562622,331.098480 
	C315.453735,337.407806 314.277771,333.188324 313.090149,326.139160 
	C311.427673,328.569275 309.986572,330.715515 308.503906,332.832672 
	C306.804230,335.259674 304.773224,337.538605 301.520447,336.152435 
	C298.321198,334.789032 296.574982,331.726074 297.086243,328.447418 
	C298.545502,319.088654 303.474854,311.737915 311.591614,306.802490 
	C315.135864,304.647400 318.712036,305.533661 321.647308,308.362976 
	C323.362244,310.016052 324.154968,311.930634 321.799622,313.808441 
	C316.220856,310.447510 313.971008,310.913635 310.021851,316.365997 
	C307.387878,320.002502 305.252319,323.881592 304.563416,329.973633 
	C308.177612,325.305023 310.913605,321.680878 313.751099,318.138031 
	C315.550507,315.891296 317.402924,313.562683 320.800964,315.698700 
	C324.007233,317.714203 322.135834,319.936279 321.162384,322.158569 
	C320.637115,323.357758 319.918213,324.563354 321.032501,326.290222 
	C325.079712,324.820526 326.766357,321.188934 328.506775,317.785828 
	C332.365875,310.239868 335.655365,302.382233 341.325684,295.497925 
z"/>
<path fill="#000000" opacity="1.000000" stroke="none" 
	d="
M204.744537,368.880371 
	C201.601212,364.393158 202.888916,359.939545 203.837219,355.263000 
	C208.377655,355.860046 207.490540,360.709045 210.462143,361.957916 
	C213.469864,360.703033 212.554306,355.908600 217.108627,355.142700 
	C217.126465,359.923706 218.879395,364.402405 217.011993,368.989838 
	C213.562073,368.559967 215.430359,365.799835 214.189499,364.649933 
	C210.861313,369.802979 209.976822,369.837921 206.847595,364.591522 
	C205.885223,366.000427 206.908264,368.126556 204.744537,368.880371 
z"/>
<path fill="#000000" opacity="1.000000" stroke="none" 
	d="
M298.467102,363.981659 
	C298.146423,365.824127 298.549957,367.581116 297.136810,368.848297 
	C294.934479,367.278839 293.697205,357.811584 295.424438,356.050781 
	C296.710846,354.739410 297.827423,355.467468 298.791748,356.522003 
	C300.097656,357.949982 300.873138,359.904083 302.931183,360.675507 
	C304.503876,359.275543 302.761322,356.590698 304.942078,355.483612 
	C307.050354,357.245575 308.126831,366.732330 306.382050,368.396820 
	C305.094940,369.624695 304.007446,368.847473 302.932068,367.927429 
	C301.391602,366.609467 301.019348,364.082825 298.467102,363.981659 
z"/>
<path fill="#000000" opacity="1.000000" stroke="none" 
	d="
M340.921997,364.200745 
	C335.638458,361.671021 335.543854,366.078247 334.354004,368.856567 
	C330.952362,366.719513 330.645447,358.842407 333.769531,355.386047 
	C336.069397,356.509674 334.458130,361.259552 338.901123,360.705536 
	C342.414673,360.267426 340.980469,356.967255 342.637512,355.631927 
	C345.763489,357.785461 346.177612,364.462280 343.480957,368.882141 
	C340.898132,368.354004 342.221802,365.786713 340.921997,364.200745 
z"/>
<path fill="#000000" opacity="1.000000" stroke="none" 
	d="
M234.074341,362.951477 
	C234.695236,365.116730 236.234787,366.792358 234.804108,369.250854 
	C231.345444,367.181274 227.732361,365.947052 223.838638,369.483887 
	C223.956879,364.257355 226.085724,360.247467 227.973877,356.258392 
	C228.842209,354.423828 230.574341,355.114380 231.403641,356.704681 
	C232.389633,358.595490 233.097824,360.631134 234.074341,362.951477 
z"/>
<path fill="#000000" opacity="1.000000" stroke="none" 
	d="
M249.233307,368.903320 
	C247.529816,367.836761 247.376694,365.766907 245.706207,365.185120 
	C243.603394,365.501831 245.106491,368.565674 242.457123,368.732025 
	C240.952942,364.863770 241.427383,360.765320 241.969803,356.811829 
	C242.296204,354.432739 244.705353,354.844849 246.494141,355.115845 
	C249.090866,355.509247 251.317749,357.216858 250.788681,359.681671 
	C250.139572,362.705688 250.087936,365.290161 251.305267,368.116364 
	C251.717010,369.072296 250.353470,369.107941 249.233307,368.903320 
z"/>
<path fill="#000000" opacity="1.000000" stroke="none" 
	d="
M194.979416,355.555725 
	C197.052353,358.814209 196.409958,362.151825 195.905289,365.357910 
	C195.412567,368.488190 192.919388,369.560638 189.993027,369.583344 
	C187.034805,369.606354 184.585342,368.406281 184.028198,365.377808 
	C183.442612,362.194733 183.090546,358.865417 184.378723,355.794464 
	C186.207825,355.305664 186.792099,356.297729 186.920532,357.550262 
	C187.106400,359.362793 187.071365,361.196960 187.171005,363.019684 
	C187.267578,364.786224 187.651779,366.498718 189.874420,366.454437 
	C191.932922,366.413422 192.435593,364.898682 192.783859,363.079254 
	C193.274811,360.514435 191.275940,357.324768 194.979416,355.555725 
z"/>
<path fill="#000000" opacity="1.000000" stroke="none" 
	d="
M320.744476,364.115662 
	C319.107422,362.168610 320.251221,361.713593 321.842133,361.633667 
	C323.318878,361.559479 324.956848,361.332855 325.240631,363.500824 
	C325.666168,366.751343 324.888214,369.070526 321.056824,369.329407 
	C317.636292,369.560486 315.037140,368.216431 314.083740,364.998383 
	C313.114899,361.728333 313.135010,358.291290 316.583588,356.161560 
	C319.279724,354.496521 322.002136,354.049896 324.523743,356.736938 
	C323.228394,359.243347 321.080231,357.821472 319.518982,358.393738 
	C317.334564,359.194427 316.262878,360.797791 316.630005,362.983276 
	C316.960052,364.947815 318.421265,366.253021 320.489227,366.182159 
	C321.957977,366.131897 322.830444,365.406525 320.744476,364.115662 
z"/>
<path fill="#000000" opacity="1.000000" stroke="none" 
	d="
M277.898926,366.740723 
	C274.485321,370.513367 271.355743,370.204590 268.038177,367.246124 
	C269.756165,364.186737 272.888611,368.418243 274.340454,365.020172 
	C272.838989,362.239838 266.129791,363.295319 268.106201,357.656830 
	C268.766235,355.773865 270.611267,355.033905 272.493042,354.887024 
	C274.727448,354.712555 276.626465,355.336334 277.462097,357.426178 
	C275.966248,360.447815 273.435303,357.056702 271.793121,359.305420 
	C273.816101,361.621063 279.395630,361.165955 277.898926,366.740723 
z"/>
<path fill="#000000" opacity="1.000000" stroke="none" 
	d="
M172.547974,366.169250 
	C168.997314,364.214417 171.394272,369.054565 168.162415,368.294617 
	C167.191147,364.380127 167.493362,359.973297 168.035934,355.715088 
	C170.954819,354.904602 169.870468,358.026031 171.435745,358.129700 
	C173.518799,357.576141 174.271957,354.574158 177.948624,355.629364 
	C173.959854,359.722351 173.055511,364.133118 177.301041,368.459991 
	C174.184967,369.602417 173.830780,367.405090 172.547974,366.169250 
z"/>
<path fill="#000000" opacity="1.000000" stroke="none" 
	d="
M244.982666,298.229858 
	C245.893082,296.597870 246.635590,295.320923 248.049225,294.623962 
	C249.920135,293.701630 251.612427,294.129028 253.041367,295.449921 
	C254.788376,297.064819 253.483139,298.307587 252.413849,299.629791 
	C250.693298,301.757324 249.086395,303.976715 247.390045,306.211884 
	C243.430237,304.323151 243.712936,301.580505 244.982666,298.229858 
z"/>
<path fill="#000000" opacity="1.000000" stroke="none" 
	d="
M268.690796,295.177673 
	C270.484894,296.768799 269.871033,297.940979 268.783661,299.253113 
	C266.993317,301.413513 265.344208,303.690948 263.540100,306.043488 
	C259.569244,304.631287 259.534363,301.893585 260.769257,298.844391 
	C262.151215,295.432037 264.190216,292.986603 268.690796,295.177673 
z"/>
<path fill="#000000" opacity="1.000000" stroke="none" 
	d="
M284.651947,363.500275 
	C284.900879,360.558563 283.992676,357.865295 285.653839,355.478119 
	C288.923676,357.894226 289.141357,365.384705 286.097626,369.091980 
	C283.697723,367.897797 284.964386,365.670135 284.651947,363.500275 
z"/>
</svg>