<?xml version="1.0" encoding="UTF-8"?>
<svg version="1.1" xmlns="http://www.w3.org/2000/svg" width="500" height="500">
<path d="M0 0 C165 0 330 0 500 0 C500 165 500 330 500 500 C335 500 170 500 0 500 C0 335 0 170 0 0 Z " fill="#FEFEFE" transform="translate(0,0)"/>
<path d="M0 0 C4.67051605 2.88874451 7.96398333 5.43072568 9.59375 10.86328125 C9.80083339 13.58494869 9.73537429 16.12521155 9.59375 18.86328125 C11.24375 18.86328125 12.89375 18.86328125 14.59375 18.86328125 C14.59632813 18.30640625 14.59890625 17.74953125 14.6015625 17.17578125 C14.99403461 9.43099834 18.15889345 5.00372153 23.78125 -0.13671875 C28.36227525 -1.76552773 32.79688007 -1.77159859 37.59375 -1.13671875 C41.03125 0.55078125 41.03125 0.55078125 43.59375 2.86328125 C44.769375 3.88421875 44.769375 3.88421875 45.96875 4.92578125 C48.48095111 9.46706788 48.33719387 13.79299408 47.59375 18.86328125 C45.98517924 22.13787172 44.68330988 24.00719849 41.84375 26.23828125 C38.39505571 27.19625189 35.10994318 27.44931345 31.59375 26.86328125 C28.7837154 25.06964214 27.08434532 23.8444719 25.59375 20.86328125 C25.02394943 13.79775418 25.02394943 13.79775418 27.15625 10.30078125 C30.60237154 8.26845316 32.80018396 8.93278392 36.59375 9.86328125 C37.59375 10.86328125 37.59375 10.86328125 37.65625 13.42578125 C37.635625 14.23015625 37.615 15.03453125 37.59375 15.86328125 C36.27375 16.19328125 34.95375 16.52328125 33.59375 16.86328125 C34.58375 14.38828125 34.58375 14.38828125 35.59375 11.86328125 C33.28375 12.52328125 30.97375 13.18328125 28.59375 13.86328125 C28.27744896 17.3425927 28.23856964 19.28611316 30.09375 22.30078125 C33.298174 24.30354625 35.12476192 24.08259783 38.7578125 23.4140625 C41.10194707 22.71082213 42.25162093 21.91594925 43.59375 19.86328125 C44.83204052 16.1484097 45.1441322 12.72349613 44.59375 8.86328125 C42.50012823 5.42375977 40.47467169 3.0829995 36.59375 1.86328125 C31.14831087 1.34956058 27.35904714 2.16594325 22.59375 4.86328125 C18.40907859 9.48844439 17.86020894 13.86795505 17.59375 19.86328125 C18.480625 20.11078125 19.3675 20.35828125 20.28125 20.61328125 C26.82489789 23.08258234 29.61136112 26.7919896 32.59375 32.86328125 C32.74263672 34.12591797 32.74263672 34.12591797 32.89453125 35.4140625 C33.36391066 38.0412915 33.36391066 38.0412915 35.74609375 39.34765625 C36.66519531 39.7653125 37.58429688 40.18296875 38.53125 40.61328125 C52.84832963 47.86478911 61.59678241 59.87237848 66.59375 74.86328125 C67.47385659 85.35293788 68.09945938 96.57880859 62.59375 105.86328125 C62.15804687 106.69730469 61.72234375 107.53132813 61.2734375 108.390625 C55.42231382 119.02176502 47.43757753 125.52478154 36.59375 130.86328125 C35.93375 130.86328125 35.27375 130.86328125 34.59375 130.86328125 C34.26375 129.54328125 33.93375 128.22328125 33.59375 126.86328125 C32.789375 127.29640625 32.789375 127.29640625 31.96875 127.73828125 C23.59850693 131.70313323 13.65689348 132.69289018 4.70703125 129.9921875 C2.34375 128.92578125 2.34375 128.92578125 0.390625 127.8359375 C-1.52244199 126.80038602 -3.2850454 126.30910965 -5.40625 125.86328125 C-6.39625 127.34828125 -6.39625 127.34828125 -7.40625 128.86328125 C-15.84449982 127.70857338 -23.07342237 120.20640476 -28.40625 113.86328125 C-32.89884962 107.60535425 -35.59500622 101.33068982 -37.40625 93.86328125 C-36.725625 94.52328125 -36.045 95.18328125 -35.34375 95.86328125 C-31.69682391 98.34629476 -29.74059444 98.33611882 -25.40625 97.86328125 C-22.02593411 96.6756027 -21.47408183 95.965029 -19.40625 92.86328125 C-19.10226728 88.6835189 -18.93888566 85.36953584 -21.40625 81.86328125 C-25.1436356 79.37169085 -26.97956583 79.4053484 -31.40625 79.86328125 C-34.09764215 81.65754268 -36.12859173 83.58562298 -38.40625 85.86328125 C-39.18861445 72.24434451 -34.74988946 61.61885055 -25.84375 51.42578125 C-23.20902097 48.50794442 -21.05773909 46.37852502 -17.40625 44.86328125 C-17.40625 47.50328125 -17.40625 50.14328125 -17.40625 52.86328125 C-13.98968976 53.03005407 -13.98968976 53.03005407 -10.40625 52.86328125 C-8.11896266 51.02444244 -8.11896266 51.02444244 -8.28125 48.23828125 C-8.3225 47.45453125 -8.36375 46.67078125 -8.40625 45.86328125 C-10.38625 44.87328125 -12.36625 43.88328125 -14.40625 42.86328125 C-13.77589844 42.46753906 -13.14554688 42.07179687 -12.49609375 41.6640625 C-9.99122549 39.505662 -9.67779756 38.23416031 -8.96875 35.05078125 C-7.22638828 28.64969834 -4.53697722 24.98543196 1.21875 21.48828125 C4.59375 19.86328125 4.59375 19.86328125 7.59375 19.86328125 C6.77347468 12.32220497 6.77347468 12.32220497 3.21875 5.80078125 C-1.54660526 2.28349522 -4.368339 1.45628586 -10.21484375 2.24609375 C-13.59763116 3.19882175 -15.28862248 5.15007099 -17.40625 7.86328125 C-18.97560594 11.00199313 -18.75826103 13.40183947 -18.40625 16.86328125 C-16.48958333 19.94661458 -16.48958333 19.94661458 -13.40625 21.86328125 C-9.88398401 22.34911104 -7.62141617 22.5296627 -4.46875 20.80078125 C-2.85145395 17.85159434 -3.21994862 15.15460566 -3.40625 11.86328125 C-5.05625 11.86328125 -6.70625 11.86328125 -8.40625 11.86328125 C-8.40625 13.18328125 -8.40625 14.50328125 -8.40625 15.86328125 C-9.39625 15.86328125 -10.38625 15.86328125 -11.40625 15.86328125 C-11.53125 13.48828125 -11.53125 13.48828125 -11.40625 10.86328125 C-10.74625 10.20328125 -10.08625 9.54328125 -9.40625 8.86328125 C-5.90625 9.05078125 -5.90625 9.05078125 -2.40625 9.86328125 C0.09406654 13.61375607 0.12978554 15.42184391 -0.40625 19.86328125 C-2.43207856 22.93469874 -3.8875378 24.55020134 -7.56640625 25.30859375 C-11.53275506 25.50724227 -13.86146417 25.17624332 -17.34375 23.17578125 C-20.45842486 19.68357004 -21.24568076 17.10195826 -21.84375 12.48828125 C-21.27882422 7.80746762 -19.67361776 5.1996172 -16.40625 1.86328125 C-11.17785199 -1.73850405 -5.77545388 -2.72833941 0 0 Z " fill="#020202" transform="translate(236.40625,148.13671875)"/>
<path d="M0 0 C2.475 0.495 2.475 0.495 5 1 C3.64734437 4.64628908 1.9907517 7.82567172 -0.0625 11.125 C-1.72679402 13.80251948 -2.99990801 15.99972402 -4 19 C-3.48050781 18.48308594 -2.96101562 17.96617187 -2.42578125 17.43359375 C-1.72839844 16.77488281 -1.03101563 16.11617188 -0.3125 15.4375 C0.37199219 14.77621094 1.05648437 14.11492187 1.76171875 13.43359375 C4 12 4 12 6.70703125 12.22265625 C9 13 9 13 10 14 C10.37650738 18.27932773 10.0038081 21.76264371 7.25390625 25.15234375 C1.85109918 30 1.85109918 30 -2 30 C-1.34 31.32 -0.68 32.64 0 34 C2.91995797 33.93047719 5.16420475 33.675656 7.48828125 31.796875 C11.61040224 27.21920964 14.37323405 21.92367711 17.19140625 16.4765625 C19 14 19 14 21.71484375 13.1484375 C22.46894531 13.09945313 23.22304687 13.05046875 24 13 C24.67578125 14.703125 24.67578125 14.703125 25 17 C23.85546875 19.296875 23.85546875 19.296875 22.1875 21.75 C19.34920547 26.18853947 17.95543317 29.84066091 17 35 C23.15697756 29.42023909 28.00127848 22.45970748 32.1875 15.3125 C34 13 34 13 36.75 12.625 C37.4925 12.74875 38.235 12.8725 39 13 C39.6796875 14.62890625 39.6796875 14.62890625 40 17 C38.8203125 19.83984375 38.8203125 19.83984375 37.125 22.9375 C35.10001752 26.66252591 33.60526467 29.78642675 33 34 C38.31577333 31.56993219 40.2201926 27.868727 43 23 C44.1014883 21.16505622 45.20566959 19.33172639 46.3125 17.5 C47.20907306 16.00044203 48.10517423 14.50060128 49 13 C50.65 13.33 52.3 13.66 54 14 C53.21681311 17.91593446 51.60820142 21.36406635 50 25 C50.99580078 23.79150391 50.99580078 23.79150391 52.01171875 22.55859375 C52.90276594 21.51747546 53.79474194 20.47715159 54.6875 19.4375 C55.12255859 18.90447266 55.55761719 18.37144531 56.00585938 17.82226562 C57.32421875 16.30859375 57.32421875 16.30859375 60 14 C62.83203125 14.16015625 62.83203125 14.16015625 65 15 C66 19.875 66 19.875 66 21 C66.58007812 20.33871094 67.16015625 19.67742187 67.7578125 18.99609375 C68.92957031 17.72958984 68.92957031 17.72958984 70.125 16.4375 C71.27355469 15.16712891 71.27355469 15.16712891 72.4453125 13.87109375 C75 12 75 12 78.3046875 12.22265625 C79.19414062 12.47917969 80.08359375 12.73570312 81 13 C82.0059537 16.19130141 82.17410011 17.59876265 80.8203125 20.71875 C80.26085937 21.6365625 79.70140625 22.554375 79.125 23.5 C76.98218481 27.04810328 75.58262176 29.87683062 75 34 C79.6008577 31.23816708 82.27827398 28.67142114 85.375 24.1875 C92.90947365 13.87184481 92.90947365 13.87184481 98 11 C101.84286174 10.87400453 103.80530182 11.21597932 107 13.3125 C108 15 108 15 107.6875 17.1875 C107.460625 17.785625 107.23375 18.38375 107 19 C106.01 18.01 106.01 18.01 105 17 C102.1284035 16.33209636 102.1284035 16.33209636 99 17 C93.91660215 21.84133128 90.52341535 28.14463093 89 35 C93.87072783 30.43369266 97.89156398 25.25023461 102 20 C103.65 20.33 105.3 20.66 107 21 C107 25.43513689 106.13764351 28.73383684 105 33 C112.01592057 28.0375196 117.32956413 20.71434368 119.4375 12.3125 C119.623125 11.219375 119.80875 10.12625 120 9 C121.65 8.67 123.3 8.34 125 8 C125.99 9.485 125.99 9.485 127 11 C126.34 12.32 125.68 13.64 125 15 C126.65 15.99 128.3 16.98 130 18 C129.55397709 24.69034366 126.92654458 30.02812122 124 36 C129.14732264 33.11247754 132.05691977 29.61421114 135.484375 24.828125 C135.98453125 24.22484375 136.4846875 23.6215625 137 23 C137.66 23 138.32 23 139 23 C138.40010481 26.81109886 136.65366992 29.03607619 134.25 32 C133.57453125 32.845625 132.8990625 33.69125 132.203125 34.5625 C129.95217159 37.05291654 127.76113633 39.08980777 125 41 C121.8125 40.9375 121.8125 40.9375 119 40 C117 37 117 37 117.0625 33.875 C118.07823267 29.67663829 119.69102877 26.66212902 121.94140625 23.015625 C123.2324842 20.93678643 123.2324842 20.93678643 123 18 C122.34 18 121.68 18 121 18 C119.45640364 20.20215775 118.02552438 22.39677304 116.625 24.6875 C109.72920315 35.8471979 109.72920315 35.8471979 105 39 C102.03923709 38.64111965 101.15341979 38.15341979 99 36 C98.875 32.375 98.875 32.375 99 29 C98.50628906 29.78246094 98.01257813 30.56492187 97.50390625 31.37109375 C96.86324219 32.38300781 96.22257812 33.39492188 95.5625 34.4375 C94.92441406 35.44683594 94.28632813 36.45617187 93.62890625 37.49609375 C92 40 92 40 91 41 C88.625 41.3125 88.625 41.3125 86 41 C83.80137805 38.72285584 83.00692101 37.02076303 82 34 C80.6696875 35.2375 80.6696875 35.2375 79.3125 36.5 C77.12105022 38.3193168 76.178986 38.96670028 73.3125 39.5 C71 39 71 39 69.1875 37.9375 C67.32168042 34.89326805 67.21881784 32.38512271 68 29 C69.7694883 25.18918896 71.81933948 21.58900376 74 18 C69.97048607 21.7432252 67.07507831 25.64721125 64.1875 30.3125 C63.78080078 30.95767578 63.37410156 31.60285156 62.95507812 32.26757812 C61.9641743 33.84136655 60.98124628 35.42017212 60 37 C58.35 36.67 56.7 36.34 55 36 C53.81043117 31.84773144 54.21039437 29.61274007 55.9375 25.6875 C56.31777344 24.80449219 56.69804687 23.92148437 57.08984375 23.01171875 C57.39019531 22.34785156 57.69054687 21.68398438 58 21 C52.61463775 26.89825389 47.55393267 33.338202 45 41 C42.11424181 40.60196439 41.17810487 40.20990931 39.25 37.9375 C38.8375 37.298125 38.425 36.65875 38 36 C37.608125 36.495 37.21625 36.99 36.8125 37.5 C35 39 35 39 32.4375 39.3125 C30 39 30 39 28 37 C27.8046875 34.6171875 27.8046875 34.6171875 27.875 31.875 C27.89304688 30.96492188 27.91109375 30.05484375 27.9296875 29.1171875 C27.95289063 28.41851562 27.97609375 27.71984375 28 27 C27.52949219 27.75925781 27.05898437 28.51851563 26.57421875 29.30078125 C25.95160156 30.29464844 25.32898438 31.28851563 24.6875 32.3125 C24.07261719 33.29863281 23.45773438 34.28476562 22.82421875 35.30078125 C21.32809387 37.51453348 20.07260803 39.33166441 18 41 C15.5625 41 15.5625 41 13 40 C10.6875 37.4375 10.6875 37.4375 9 35 C8.113125 35.825 7.22625 36.65 6.3125 37.5 C4.18419994 39.2527177 3.10981403 39.9738538 0.375 40.625 C-3.06351412 39.72012786 -4.07779474 37.91644936 -6 35 C-6.66 33.68 -7.32 32.36 -8 31 C-9.98 35.95 -9.98 35.95 -12 41 C-13.65 40.34 -15.3 39.68 -17 39 C-16.76800742 31.20043042 -14.78532596 25.31051228 -11.3125 18.375 C-10.89033203 17.48554688 -10.46816406 16.59609375 -10.03320312 15.6796875 C-7.24349166 9.95720245 -4.0138333 4.93916507 0 0 Z " fill="#0C0C0C" transform="translate(217,294)"/>
<path d="M0 0 C1.65 0.33 3.3 0.66 5 1 C2.92141669 5.34025427 0.44638714 9.45809461 -1.99023438 13.60351562 C-4.32346156 17.63283639 -6.23899799 21.6885813 -8 26 C-7.46890625 25.31292969 -6.9378125 24.62585938 -6.390625 23.91796875 C-5.68421875 23.01691406 -4.9778125 22.11585938 -4.25 21.1875 C-3.55390625 20.29417969 -2.8578125 19.40085937 -2.140625 18.48046875 C0.79130709 15.08306569 2.59340376 13.14065962 7.125 12.6875 C10 13 10 13 12 15 C11.57044952 19.60232653 9.50217464 22.84524653 7.15625 26.71875 C5.92264714 29.15261511 5.4160801 31.31439206 5 34 C9.49080001 31.32690475 12.48368163 28.51012781 15.703125 24.390625 C16.13109375 23.93171875 16.5590625 23.4728125 17 23 C17.66 23 18.32 23 19 23 C17.13967458 29.61449038 11.63582164 35.26555657 6 39 C3.4375 39.375 3.4375 39.375 1 39 C-1.00114067 37.45883716 -1.90719961 36.62163552 -2.28515625 34.08984375 C-1.58610866 27.33238374 1.20585261 22.55778777 5 17 C0.34163409 20.54923117 -2.6656096 24.01148252 -5.6875 29 C-6.06455078 29.60328125 -6.44160156 30.2065625 -6.83007812 30.828125 C-8.92670044 34.19442959 -10.96818059 37.59428366 -13 41 C-14.875 40.8125 -14.875 40.8125 -17 40 C-18.25 37.4375 -18.25 37.4375 -19 35 C-22.93181297 37.83456284 -25.27912082 40.16675365 -27.5 44.5 C-29.80470042 48.89654634 -31.75063348 51.36539276 -36 54 C-39.6538644 54.49543924 -41.83690056 54.72693715 -45 52.75 C-46 51 -46 51 -45.86328125 49.078125 C-44.64428174 46.14370083 -42.95312863 45.49011908 -40.1875 44 C-35.73933087 41.58208827 -32.06771613 39.40634531 -29.953125 34.640625 C-29.72109375 33.85171875 -29.4890625 33.0628125 -29.25 32.25 C-28.88648438 31.05117188 -28.88648438 31.05117188 -28.515625 29.828125 C-28.34546875 29.22484375 -28.1753125 28.6215625 -28 28 C-28.76183594 29.17369141 -28.76183594 29.17369141 -29.5390625 30.37109375 C-30.22742188 31.38300781 -30.91578125 32.39492188 -31.625 33.4375 C-32.29789062 34.44683594 -32.97078125 35.45617187 -33.6640625 36.49609375 C-36 39 -36 39 -39.16015625 39.92578125 C-42 40 -42 40 -43.8125 38.75 C-45 37 -45 37 -46 34 C-46.845625 34.845625 -47.69125 35.69125 -48.5625 36.5625 C-51.3791532 38.93653627 -51.84499768 39.00254102 -55.8125 38.9375 C-56.864375 38.628125 -57.91625 38.31875 -59 38 C-60.55820747 34.88358507 -60.73193978 32.34519353 -60 29 C-57.91998053 24.83476101 -55.51862171 20.91285872 -53 17 C-61.20859526 22.93813274 -66.72074693 31.89809665 -71 41 C-72.875 40.75 -72.875 40.75 -75 40 C-76.25 37.9375 -76.25 37.9375 -77 36 C-77.7734375 37.0209375 -77.7734375 37.0209375 -78.5625 38.0625 C-81 40 -81 40 -84.75 39.75 C-85.8225 39.5025 -86.895 39.255 -88 39 C-88.66 36.36 -89.32 33.72 -90 31 C-90.99 31.33 -91.98 31.66 -93 32 C-93.7166207 34.31847874 -94.38242027 36.65319703 -95 39 C-97 41 -97 41 -99.75 41.375 C-103.8555371 40.90128418 -105.82341368 39.61185987 -109 37 C-110.9375 34.5 -110.9375 34.5 -112 32 C-111.6875 29.6875 -111.6875 29.6875 -111 28 C-106.99799622 26.39919849 -103.95443764 27.70720308 -100 29 C-100 25.7 -100 22.4 -100 19 C-101.65 20.65 -103.3 22.3 -105 24 C-104.42901727 20.16625879 -103.36233216 17.49471641 -101.25 14.25 C-100.76015625 13.47140625 -100.2703125 12.6928125 -99.765625 11.890625 C-97.59648575 9.56791837 -96.10772002 9.31711429 -93 9 C-92.01 10.32 -91.02 11.64 -90 13 C-90.474375 13.598125 -90.94875 14.19625 -91.4375 14.8125 C-93.68630502 19.40006225 -93.743534 23.95027297 -94 29 C-87.47821291 25.65957247 -84.61297264 20.19977554 -81 14 C-78.525 14.495 -78.525 14.495 -76 15 C-76 19.61020409 -78.46151294 22.9770386 -80.58984375 26.9921875 C-81.87435817 29.73201049 -82.56609867 32.02310732 -83 35 C-79.1018806 32.96219728 -77.17000076 31.22347965 -75.0625 27.375 C-72.25765348 22.42098538 -69.20389089 17.7035845 -66 13 C-64.0625 13.375 -64.0625 13.375 -62 14 C-61.505 14.99 -61.505 14.99 -61 16 C-61.99609375 18.3828125 -61.99609375 18.3828125 -63.4375 21.125 C-63.91058594 22.03507812 -64.38367188 22.94515625 -64.87109375 23.8828125 C-65.24363281 24.58148438 -65.61617188 25.28015625 -66 26 C-65.38511719 25.22914063 -64.77023437 24.45828125 -64.13671875 23.6640625 C-63.32847656 22.66117187 -62.52023437 21.65828125 -61.6875 20.625 C-60.88699219 19.62726563 -60.08648437 18.62953125 -59.26171875 17.6015625 C-56.56954943 14.50487033 -55.08222618 13.08834499 -50.9375 12.75 C-48 13 -48 13 -46 15 C-46.42955048 19.60232653 -48.49782536 22.84524653 -50.84375 26.71875 C-52.07735286 29.15261511 -52.5839199 31.31439206 -53 34 C-47.65167137 31.13016512 -45.01367532 27.47713855 -41.66015625 22.47265625 C-38.51164364 17.78322453 -35.39559694 13.18393209 -30 11 C-26.44472465 11.1225957 -23.99632633 11.34616085 -21 13.3125 C-20 15 -20 15 -20.3125 17.1875 C-20.539375 17.785625 -20.76625 18.38375 -21 19 C-21.66 19 -22.32 19 -23 19 C-23 18.01 -23 17.02 -23 16 C-29.01303855 17.17902717 -31.39252016 18.78919578 -35 24 C-37.08576894 27.65009565 -38.38806607 30.83884924 -39 35 C-35.93648463 32.11669141 -33.42258541 29.25809427 -31 25.8125 C-28.69225679 22.67420653 -27.02851355 20.65327247 -23 20 C-22.01 20.66 -21.02 21.32 -20 22 C-20.66 25.63 -21.32 29.26 -22 33 C-16.81428888 27.45753235 -13.18949523 22.17673288 -9.875 15.375 C-7.05790953 9.65081617 -4.30675453 4.73589733 0 0 Z " fill="#0B0B0B" transform="translate(472,294)"/>
<path d="M0 0 C1.32 0.66 2.64 1.32 4 2 C3.01311706 12.0482627 -2.30255449 23.28520711 -10 30 C-13.25 30.125 -13.25 30.125 -16 29 C-18 26 -18 26 -19 21 C-20.98 23.97 -22.96 26.94 -25 30 C-30 29 -30 29 -32 27 C-32.625 24.375 -32.625 24.375 -33 22 C-38.32846529 26.28098921 -42.30639302 29.87201928 -45.05078125 36.16796875 C-46.76480508 39.47610528 -48.86505552 40.99363553 -52 43 C-55.25 43.4375 -55.25 43.4375 -58 43 C-60 41 -60 41 -60.4375 38.625 C-60 36 -60 36 -57.8125 33.875 C-50.5 29 -50.5 29 -48 29 C-47.49663233 27.37604003 -46.99741024 25.75079459 -46.5 24.125 C-46.2215625 23.22007812 -45.943125 22.31515625 -45.65625 21.3828125 C-44.91149206 19.09055353 -44.91149206 19.09055353 -45 17 C-45.65355469 17.77923828 -45.65355469 17.77923828 -46.3203125 18.57421875 C-51.77178489 24.95786931 -51.77178489 24.95786931 -55.1875 27.5 C-57.82014804 29.84013159 -58.61109036 30.93639684 -60 34 C-61.97741099 38.31435125 -63.98066321 40.42762445 -68 43 C-71.25 43.4375 -71.25 43.4375 -74 43 C-76 41 -76 41 -76.4375 38.625 C-76 36 -76 36 -73.8125 33.875 C-66.5 29 -66.5 29 -64 29 C-63.53877773 27.35497391 -63.0812105 25.70892303 -62.625 24.0625 C-62.3465625 23.05832031 -62.068125 22.05414063 -61.78125 21.01953125 C-61.11176456 18.43197001 -60.59704348 15.87801129 -60.125 13.25 C-59.15216977 8.59551053 -56.96775326 5.67064219 -54 2 C-52.68 2.33 -51.36 2.66 -50 3 C-49.19743981 5.31055545 -48.82259532 6.53345509 -49.70703125 8.859375 C-50.07183594 9.48328125 -50.43664062 10.1071875 -50.8125 10.75 C-52.9989537 14.77489054 -54.04199577 18.52931359 -55 23 C-49.17055106 17.72868979 -44.93130515 12.16345624 -40.859375 5.44140625 C-39 3 -39 3 -36.890625 2.02734375 C-35.95476562 2.01380859 -35.95476562 2.01380859 -35 2 C-34.34 2.66 -33.68 3.32 -33 4 C-33.47014074 7.72693389 -35.20618774 11.27227625 -36.5625 14.75 C-37.01753906 15.92046875 -37.47257812 17.0909375 -37.94140625 18.296875 C-38.29074219 19.18890625 -38.64007813 20.0809375 -39 21 C-38.67 21.33 -38.34 21.66 -38 22 C-33.19022367 16.95152509 -29.15762399 12.0922126 -26.0078125 5.84765625 C-25 4 -25 4 -23 2 C-20.375 2.375 -20.375 2.375 -18 3 C-19.76296281 7.52630452 -21.80159064 11.89238141 -23.87890625 16.28125 C-24.94689526 18.87121639 -25.5553035 21.24188236 -26 24 C-25.34 24 -24.68 24 -24 24 C-23.75894531 23.33613281 -23.51789063 22.67226563 -23.26953125 21.98828125 C-21.66785499 18.21818176 -19.73786151 14.72903352 -17.6875 11.1875 C-17.30916016 10.49462891 -16.93082031 9.80175781 -16.54101562 9.08789062 C-15.38671875 7.10546875 -15.38671875 7.10546875 -13 4 C-10.20703125 3.55078125 -10.20703125 3.55078125 -8 4 C-6.76028573 7.71914282 -7.4434019 8.74337783 -8.875 12.3125 C-10.37779569 16.21976879 -11.54706942 19.81039213 -12 24 C-4.75125881 17.99390015 -1.8647629 8.98476672 0 0 Z " fill="#0D0D0D" transform="translate(145,305)"/>
<path d="M0 0 C2.475 0.99 2.475 0.99 5 2 C4.43319653 5.46661387 3.58111246 8.13369432 1.85546875 11.1875 C1.42733887 11.96311279 0.99920898 12.73872559 0.55810547 13.5378418 C0.10580566 14.350354 -0.34649414 15.16286621 -0.8125 16 C-4.90157435 23.51836359 -7.98994889 30.64478755 -10 39 C-8.02 38.505 -8.02 38.505 -6 38 C-6.625 39.9375 -6.625 39.9375 -8 42 C-11 42.875 -11 42.875 -14 43 C-16 41 -16 41 -16.4375 37.0625 C-16.34969852 31.07248781 -13.72991763 26.21609261 -11 21 C-11.49628906 21.70125 -11.99257812 22.4025 -12.50390625 23.125 C-23.29636049 38.19757366 -23.29636049 38.19757366 -29 42 C-32.0625 41.8125 -32.0625 41.8125 -35 41 C-37.50901385 37.23647923 -37.42022242 35.4683651 -37 31 C-35.88211872 28.53441921 -34.79776828 26.45220367 -33.375 24.1875 C-32.8334729 23.28390747 -32.8334729 23.28390747 -32.28100586 22.36206055 C-31.20124227 20.56579379 -30.10248914 18.78238271 -29 17 C-27.85201996 15.10546578 -26.7058917 13.2098069 -25.5625 11.3125 C-25.08941406 10.54550781 -24.61632812 9.77851563 -24.12890625 8.98828125 C-22.86027805 6.90319096 -22.86027805 6.90319096 -22 4 C-28.57965855 5.96235431 -32.7173906 8.57852495 -37 14 C-38.45069964 16.73168335 -38.45069964 16.73168335 -39 19 C-40.32 18.34 -41.64 17.68 -43 17 C-43.30376727 13.12696734 -43.41682253 10.71693475 -41.4375 7.3125 C-36.83944685 2.95024445 -33.18999611 0.77580336 -26.875 0.4375 C-23.10391395 0.59870673 -22.05970105 0.95902869 -18.8125 3.1875 C-17 6 -17 6 -17.15234375 8.2265625 C-18.24504233 11.80175142 -19.93905868 14.93862832 -21.75 18.1875 C-22.47498553 19.51506456 -23.19894139 20.84319194 -23.921875 22.171875 C-24.45264648 23.14350586 -24.45264648 23.14350586 -24.99414062 24.13476562 C-27.09878302 28.0375491 -29.05106254 32.01779605 -31 36 C-22.40855042 31.57410173 -17.15303348 23.75014955 -11.875 15.9375 C-8.11624783 10.42167387 -4.38512861 5.03876098 0 0 Z " fill="#0C0C0C" transform="translate(82,294)"/>
<path d="M0 0 C2.475 0.495 2.475 0.495 5 1 C3.64734437 4.64628908 1.9907517 7.82567172 -0.0625 11.125 C-1.72679402 13.80251948 -2.99990801 15.99972402 -4 19 C-3.48050781 18.48308594 -2.96101562 17.96617187 -2.42578125 17.43359375 C-1.72839844 16.77488281 -1.03101563 16.11617188 -0.3125 15.4375 C0.37199219 14.77621094 1.05648437 14.11492187 1.76171875 13.43359375 C4 12 4 12 6.70703125 12.22265625 C9 13 9 13 10 14 C10.37650738 18.27932773 10.0038081 21.76264371 7.25390625 25.15234375 C1.85109918 30 1.85109918 30 -2 30 C-1.34 31.32 -0.68 32.64 0 34 C2.91995797 33.93047719 5.16420475 33.675656 7.48828125 31.796875 C11.61040224 27.21920964 14.37323405 21.92367711 17.19140625 16.4765625 C19 14 19 14 21.71484375 13.1484375 C22.46894531 13.09945313 23.22304687 13.05046875 24 13 C24.67578125 14.703125 24.67578125 14.703125 25 17 C23.85546875 19.296875 23.85546875 19.296875 22.1875 21.75 C19.34920547 26.18853947 17.95543317 29.84066091 17 35 C17.7425 34.21625 18.485 33.4325 19.25 32.625 C21.54433318 30.43495469 23.12158858 29.17268614 26 28 C25.07872717 32.8805525 22.39246277 36.45333438 19 40 C16.125 41 16.125 41 14 41 C12.35 39.02 10.7 37.04 9 35 C8.113125 35.825 7.22625 36.65 6.3125 37.5 C4.18419994 39.2527177 3.10981403 39.9738538 0.375 40.625 C-3.06351412 39.72012786 -4.07779474 37.91644936 -6 35 C-6.66 33.68 -7.32 32.36 -8 31 C-9.98 35.95 -9.98 35.95 -12 41 C-13.65 40.34 -15.3 39.68 -17 39 C-16.76800742 31.20043042 -14.78532596 25.31051228 -11.3125 18.375 C-10.89033203 17.48554688 -10.46816406 16.59609375 -10.03320312 15.6796875 C-7.24349166 9.95720245 -4.0138333 4.93916507 0 0 Z " fill="#0D0D0D" transform="translate(217,294)"/>
<path d="M0 0 C2.475 0.495 2.475 0.495 5 1 C5 4.71529124 3.95766995 5.83664601 1.875 8.875 C-3.60970131 17.27449186 -8.06070323 26.10958648 -10 36 C-6.20863047 33.01716461 -2.91510391 30.13474107 -0.1875 26.125 C0.534375 25.09375 1.25625 24.0625 2 23 C2.66 23 3.32 23 4 23 C2.40300825 29.92029757 -2.12292826 36.08195217 -8 40 C-11.1875 40.125 -11.1875 40.125 -14 40 C-14.99 38.02 -15.98 36.04 -17 34 C-18.11375 35.2684375 -18.11375 35.2684375 -19.25 36.5625 C-22 39 -22 39 -24.1875 38.9375 C-26 38 -26 38 -28 36 C-28.125 32.375 -28.125 32.375 -28 29 C-28.49371094 29.78246094 -28.98742187 30.56492187 -29.49609375 31.37109375 C-30.13675781 32.38300781 -30.77742187 33.39492188 -31.4375 34.4375 C-32.07558594 35.44683594 -32.71367187 36.45617187 -33.37109375 37.49609375 C-35 40 -35 40 -36 41 C-38.375 41.3125 -38.375 41.3125 -41 41 C-43.79266337 38.68883031 -44.00568098 36.96338923 -44.5625 33.375 C-44.24202363 25.55246309 -38.31408898 18.43235773 -32.79296875 13.2890625 C-29.8376347 11.16431253 -27.59035324 10.80053593 -24 11 C-21.0625 12.9375 -21.0625 12.9375 -19 15 C-19.33 16.32 -19.66 17.64 -20 19 C-20.66 18.34 -21.32 17.68 -22 17 C-24.8715965 16.33209636 -24.8715965 16.33209636 -28 17 C-33.08339785 21.84133128 -36.47658465 28.14463093 -38 35 C-33.12927217 30.43369266 -29.10843602 25.25023461 -25 20 C-23.35 20.33 -21.7 20.66 -20 21 C-20 25.43513689 -20.86235649 28.73383684 -22 33 C-16.08032493 28.86756114 -13.55877286 24.03674454 -10.4375 17.625 C-7.33952691 11.36770782 -4.23805802 5.56388811 0 0 Z " fill="#0D0D0D" transform="translate(191,294)"/>
<path d="M0 0 C2.475 0.495 2.475 0.495 5 1 C2.92141669 5.34025427 0.44638714 9.45809461 -1.99023438 13.60351562 C-4.32346156 17.63283639 -6.23899799 21.6885813 -8 26 C-7.46890625 25.31292969 -6.9378125 24.62585938 -6.390625 23.91796875 C-5.68421875 23.01691406 -4.9778125 22.11585938 -4.25 21.1875 C-3.20585937 19.84751953 -3.20585937 19.84751953 -2.140625 18.48046875 C0.79130709 15.08306569 2.59340376 13.14065962 7.125 12.6875 C10 13 10 13 12 15 C11.57044952 19.60232653 9.50217464 22.84524653 7.15625 26.71875 C5.92264714 29.15261511 5.4160801 31.31439206 5 34 C9.49080001 31.32690475 12.48368163 28.51012781 15.703125 24.390625 C16.13109375 23.93171875 16.5590625 23.4728125 17 23 C17.66 23 18.32 23 19 23 C17.13967458 29.61449038 11.63582164 35.26555657 6 39 C3.4375 39.375 3.4375 39.375 1 39 C-1.00114067 37.45883716 -1.90719961 36.62163552 -2.28515625 34.08984375 C-1.58610866 27.33238374 1.20585261 22.55778777 5 17 C0.34163409 20.54923117 -2.6656096 24.01148252 -5.6875 29 C-6.06455078 29.60328125 -6.44160156 30.2065625 -6.83007812 30.828125 C-8.92670044 34.19442959 -10.96818059 37.59428366 -13 41 C-14.875 40.8125 -14.875 40.8125 -17 40 C-18.25 37.4375 -18.25 37.4375 -19 35 C-20.32 35.66 -21.64 36.32 -23 37 C-21.97870616 33.62973033 -20.59582461 31.44218809 -18.23046875 28.9140625 C-14.64026663 24.8058147 -12.33665525 20.30851218 -9.9375 15.4375 C-7.09799921 9.70018324 -4.32058971 4.75187853 0 0 Z " fill="#0C0C0C" transform="translate(472,294)"/>
<path d="M0 0 C4.44230769 3.63461538 4.44230769 3.63461538 5.75 6.25 C6.1585132 10.53938857 6.23025674 13.11254983 4.5625 17.0625 C2.41335221 19.65629905 0.88104125 20.96911949 -2.25 22.25 C-6.02654862 22.18488709 -8.29916906 22.07814308 -11.1875 19.5625 C-12.54942264 16.59831544 -12.60071145 14.47654537 -12.25 11.25 C-10.25 9.25 -10.25 9.25 -7.125 9.125 C-6.17625 9.16625 -5.2275 9.2075 -4.25 9.25 C-4.58 10.57 -4.91 11.89 -5.25 13.25 C-4.59 13.25 -3.93 13.25 -3.25 13.25 C-3.25 11.6 -3.25 9.95 -3.25 8.25 C-7.80492191 7.1363971 -7.80492191 7.1363971 -12.1875 8.1875 C-13.87035518 11.45421889 -13.78866829 14.70031407 -13.25 18.25 C-11.8990712 21.1754644 -11.8990712 21.1754644 -10.25 23.25 C-14.55764815 21.68358249 -18.31171464 19.56663844 -22.25 17.25 C-22.90757448 11.98940418 -22.74321607 8.23809311 -19.625 3.8125 C-14.5070931 -2.21632242 -7.06881811 -3.80628667 0 0 Z " fill="#F6F6F6" transform="translate(276.25,150.75)"/>
<path d="M0 0 C4.58368524 2.59770096 7.32169401 4.89820239 8.94921875 10.0859375 C9.16089013 12.80812986 9.09089054 15.34694951 8.94921875 18.0859375 C5.97921875 19.4059375 3.00921875 20.7259375 -0.05078125 22.0859375 C-0.38078125 21.4259375 -0.71078125 20.7659375 -1.05078125 20.0859375 C-0.72078125 19.4259375 -0.39078125 18.7659375 -0.05078125 18.0859375 C0.38762668 13.40222684 0.38762668 13.40222684 -1.23828125 9.1484375 C-3.61119743 7.75741767 -5.34764549 7.86676433 -8.05078125 8.0859375 C-8.71078125 10.0659375 -9.37078125 12.0459375 -10.05078125 14.0859375 C-9.39078125 13.7559375 -8.73078125 13.4259375 -8.05078125 13.0859375 C-7.39864833 11.06130495 -7.39864833 11.06130495 -7.05078125 9.0859375 C-5.40078125 9.4159375 -3.75078125 9.7459375 -2.05078125 10.0859375 C-0.6032288 16.35866477 -0.6032288 16.35866477 -2.55078125 19.5234375 C-6.01353313 21.68765743 -8.0352049 21.71997587 -12.05078125 21.0859375 C-14.92578125 18.6484375 -14.92578125 18.6484375 -17.05078125 16.0859375 C-17.38078125 15.7559375 -17.71078125 15.4259375 -18.05078125 15.0859375 C-18.4546684 10.96628861 -18.29155181 8.56747861 -16.42578125 4.8359375 C-12.03481033 -0.24834462 -6.47463787 -2.88583859 0 0 Z " fill="#F3F3F3" transform="translate(235.05078125,149.9140625)"/>
<path d="M0 0 C1.32 0.33 2.64 0.66 4 1 C4.80256019 3.31055545 5.17740468 4.53345509 4.29296875 6.859375 C3.92816406 7.48328125 3.56335938 8.1071875 3.1875 8.75 C1.0010463 12.77489054 -0.04199577 16.52931359 -1 21 C0.29477062 19.73232923 1.58570339 18.46073776 2.875 17.1875 C3.59429687 16.47980469 4.31359375 15.77210938 5.0546875 15.04296875 C7.15358937 12.95600806 7.15358937 12.95600806 9 10 C9.99 10 10.98 10 12 10 C12 10.66 12 11.32 12 12 C11.34 12 10.68 12 10 12 C9.74863281 12.7425 9.49726562 13.485 9.23828125 14.25 C7.90708619 17.20634486 6.52635863 18.7818855 4.1875 21 C3.47464844 21.68964844 2.76179688 22.37929688 2.02734375 23.08984375 C0.43963616 24.58577634 -1.15404965 26.07536444 -2.75 27.5625 C-4.64477373 29.61517154 -5.71365228 31.15315031 -7 33.5625 C-9.04943702 37.08496988 -10.51436159 38.92521523 -14 41 C-17.1875 41.375 -17.1875 41.375 -20 41 C-22 39 -22 39 -22.4375 36.625 C-22 34 -22 34 -19.8125 31.875 C-12.5 27 -12.5 27 -10 27 C-9.53877773 25.35497391 -9.0812105 23.70892303 -8.625 22.0625 C-8.3465625 21.05832031 -8.068125 20.05414063 -7.78125 19.01953125 C-7.11176456 16.43197001 -6.59704348 13.87801129 -6.125 11.25 C-5.15216977 6.59551053 -2.96775326 3.67064219 0 0 Z " fill="#101010" transform="translate(91,307)"/>
<path d="M0 0 C2.4375 0.25 2.4375 0.25 5 1 C5.66 1.99 6.32 2.98 7 4 C6.525625 4.598125 6.05125 5.19625 5.5625 5.8125 C3.31369498 10.40006225 3.256466 14.95027297 3 20 C3.61875 19.814375 4.2375 19.62875 4.875 19.4375 C7 19 7 19 9 20 C8.67 20.66 8.34 21.32 8 22 C5.9375 22.625 5.9375 22.625 4 23 C3.566875 24.670625 3.566875 24.670625 3.125 26.375 C2 30 2 30 0 32 C-3.85364713 32.52549734 -5.72443138 32.14588927 -9.1875 30.3125 C-12.00793977 27.99347175 -13.57654801 26.34929881 -15 23 C-14.6875 20.6875 -14.6875 20.6875 -14 19 C-9.99799622 17.39919849 -6.95443764 18.70720308 -3 20 C-3 16.7 -3 13.4 -3 10 C-4.65 11.65 -6.3 13.3 -8 15 C-7.43928208 11.04693863 -6.27794197 8.51358993 -4 5.25 C-3.46375 4.47140625 -2.9275 3.6928125 -2.375 2.890625 C-1 1 -1 1 0 0 Z " fill="#0E0E0E" transform="translate(375,303)"/>
<path d="M0 0 C2.6875 0.875 2.6875 0.875 5 2 C4.71561048 3.89693861 4.42216208 5.79252027 4.125 7.6875 C3.96257812 8.74324219 3.80015625 9.79898437 3.6328125 10.88671875 C2.0637933 18.60590583 -2.15538543 26.69942332 -7.9375 32.125 C-11.64890354 34.39728788 -13.72047419 34.64596616 -18 34 C-20 32.75 -20 32.75 -21 31 C-20.86328125 29.078125 -20.86328125 29.078125 -20 27 C-17.85546875 25.4375 -17.85546875 25.4375 -15.1875 24 C-10.73933087 21.58208827 -7.06771613 19.40634531 -4.953125 14.640625 C-4.72109375 13.85171875 -4.4890625 13.0628125 -4.25 12.25 C-4.00765625 11.45078125 -3.7653125 10.6515625 -3.515625 9.828125 C-3.34546875 9.22484375 -3.1753125 8.6215625 -3 8 C-3.598125 8.639375 -4.19625 9.27875 -4.8125 9.9375 C-7 12 -7 12 -10 13 C-7.73457912 7.85131619 -4.68917123 3.12611416 0 0 Z " fill="#121212" transform="translate(447,314)"/>
<path d="M0 0 C2.9375 2.4375 2.9375 2.4375 5 5 C5.33 5.33 5.66 5.66 6 6 C6.38301738 9.25564772 6.67642942 11.86168034 4.953125 14.76171875 C2.24270498 18.05408189 0.50622941 19.82883757 -3.75 20.3125 C-7.80901885 19.92220973 -9.83301684 18.50412622 -13 16 C-14.60086627 12.79826746 -14.49917089 9.47422941 -14 6 C-10.39850188 0.35765295 -6.65216643 -1.18515609 0 0 Z " fill="#F7F7F7" transform="translate(271,207)"/>
<path d="M0 0 C2.63016161 2.1727422 4.47336894 3.94673788 6 7 C6.39069343 11.14135035 6.43382227 13.31186812 4.1875 16.875 C1.36458424 19.61726103 -0.4899822 19.94333136 -4.375 20.375 C-8.91993735 19.90483407 -10.14368962 18.44437428 -13 15 C-13.33 14.67 -13.66 14.34 -14 14 C-14.38301738 10.74435228 -14.67642942 8.13831966 -12.953125 5.23828125 C-8.89113629 0.30415967 -6.35700029 -0.64647461 0 0 Z " fill="#F5F5F5" transform="translate(212,227)"/>
<path d="M0 0 C1.32 0.66 2.64 1.32 4 2 C3.01311706 12.0482627 -2.30255449 23.28520711 -10 30 C-13.3125 30.0625 -13.3125 30.0625 -16 29 C-17.18306728 26.63386544 -17.13354608 25.13219264 -17.125 22.5 C-17.12757812 21.7059375 -17.13015625 20.911875 -17.1328125 20.09375 C-17 18 -17 18 -16 16 C-16.99 16 -17.98 16 -19 16 C-17.43358249 11.69235185 -15.31663844 7.93828536 -13 4 C-11.35 4 -9.7 4 -8 4 C-6.76028573 7.71914282 -7.4434019 8.74337783 -8.875 12.3125 C-10.37779569 16.21976879 -11.54706942 19.81039213 -12 24 C-4.75125881 17.99390015 -1.8647629 8.98476672 0 0 Z " fill="#0D0D0D" transform="translate(145,305)"/>
<path d="M0 0 C3.4375 1.6875 3.4375 1.6875 6 4 C6.78375 4.680625 7.5675 5.36125 8.375 6.0625 C10.88720111 10.60378663 10.74344387 14.92971283 10 20 C8.39142924 23.27459047 7.08955988 25.14391724 4.25 27.375 C0.80130571 28.33297064 -2.48380682 28.5860322 -6 28 C-8.8100346 26.20636089 -10.50940468 24.98119065 -12 22 C-12.56980057 14.93447293 -12.56980057 14.93447293 -10.4375 11.4375 C-6.99137846 9.40517191 -4.79356604 10.06950267 -1 11 C0 12 0 12 0.0625 14.5625 C0.041875 15.366875 0.02125 16.17125 0 17 C-1.32 17.33 -2.64 17.66 -4 18 C-3.34 16.35 -2.68 14.7 -2 13 C-4.31 13.66 -6.62 14.32 -9 15 C-9.31630104 18.47931145 -9.35518036 20.42283191 -7.5 23.4375 C-4.295576 25.440265 -2.46898808 25.21931658 1.1640625 24.55078125 C3.50819707 23.84754088 4.65787093 23.052668 6 21 C7.23829052 17.28512845 7.5503822 13.86021488 7 10 C4.90637823 6.56047852 2.88092169 4.21971825 -1 3 C-6.44543913 2.48627933 -10.23470286 3.302662 -15 6 C-19.18467141 10.62516314 -19.73354106 15.0046738 -20 21 C-22.64 21 -25.28 21 -28 21 C-28 20.67 -28 20.34 -28 20 C-26.35 20 -24.7 20 -23 20 C-22.99742187 19.443125 -22.99484375 18.88625 -22.9921875 18.3125 C-22.59971539 10.56771709 -19.43485655 6.14044028 -13.8125 1 C-9.23147475 -0.62880898 -4.79686993 -0.63487984 0 0 Z " fill="#171717" transform="translate(274,147)"/>
<path d="M0 0 C2.75 0.25 2.75 0.25 5 1 C6 5.875 6 5.875 6 7 C6.45375 6.505 6.9075 6.01 7.375 5.5 C9 4 9 4 11 4 C9.41467191 8.55564061 7.00996919 12.31475769 4.375 16.3125 C3.95476562 16.95767578 3.53453125 17.60285156 3.1015625 18.26757812 C2.07161759 19.84760724 1.03634372 21.42416047 0 23 C-1.65 22.67 -3.3 22.34 -5 22 C-6.18956883 17.84773144 -5.78960563 15.61274007 -4.0625 11.6875 C-3.68222656 10.80449219 -3.30195313 9.92148437 -2.91015625 9.01171875 C-2.60980469 8.34785156 -2.30945313 7.68398438 -2 7 C-2.40992188 7.48210937 -2.81984375 7.96421875 -3.2421875 8.4609375 C-3.78101563 9.09257812 -4.31984375 9.72421875 -4.875 10.375 C-5.40867187 11.00148438 -5.94234375 11.62796875 -6.4921875 12.2734375 C-7.61432007 13.55836651 -8.79371975 14.79371975 -10 16 C-10.33 15.01 -10.66 14.02 -11 13 C-9.70703125 10.87890625 -9.70703125 10.87890625 -7.8125 8.5625 C-7.20019531 7.80066406 -6.58789062 7.03882813 -5.95703125 6.25390625 C-4.04154407 4.04784616 -2.19602753 1.92984238 0 0 Z " fill="#111111" transform="translate(277,308)"/>
<path d="M0 0 C0.66 0 1.32 0 2 0 C1.39733904 4.15733914 -0.9552392 7.20953224 -3.3125 10.5625 C-3.70373047 11.13935547 -4.09496094 11.71621094 -4.49804688 12.31054688 C-6.67517758 15.44084923 -8.69146937 18.04719423 -12 20 C-15.00388632 19.73495121 -15.83304275 19.16695725 -18 17 C-18.125 13.375 -18.125 13.375 -18 10 C-18.433125 10.474375 -18.86625 10.94875 -19.3125 11.4375 C-21 13 -21 13 -24 14 C-22.50923566 10.7173068 -20.61379679 8.06922559 -18.375 5.25 C-17.74335938 4.45078125 -17.11171875 3.6515625 -16.4609375 2.828125 C-15.97882813 2.22484375 -15.49671875 1.6215625 -15 1 C-13.35 1.33 -11.7 1.66 -10 2 C-10 6.43513689 -10.86235649 9.73383684 -12 14 C-7.23387659 10.48214701 -4.3696016 6.85635962 -1.296875 1.79296875 C-0.86890625 1.20128906 -0.4409375 0.60960937 0 0 Z " fill="#111111" transform="translate(334,313)"/>
<path d="M0 0 C4.66469162 2.88514206 7.87121583 5.44960242 9.59375 10.86328125 C9.26375 11.52328125 8.93375 12.18328125 8.59375 12.86328125 C6.59375 11.86328125 6.59375 11.86328125 4.84375 8.48828125 C2.71243647 4.69407474 0.87072604 3.15444383 -3.40625 1.86328125 C-8.40147669 1.58086561 -11.47615823 2.10758169 -15.40625 5.30078125 C-18.55236475 9.33174078 -18.92958661 11.71713788 -18.40625 16.86328125 C-16.48958333 19.94661458 -16.48958333 19.94661458 -13.40625 21.86328125 C-9.88398401 22.34911104 -7.62141617 22.5296627 -4.46875 20.80078125 C-2.85145395 17.85159434 -3.21994862 15.15460566 -3.40625 11.86328125 C-5.05625 11.86328125 -6.70625 11.86328125 -8.40625 11.86328125 C-8.40625 13.18328125 -8.40625 14.50328125 -8.40625 15.86328125 C-9.39625 15.86328125 -10.38625 15.86328125 -11.40625 15.86328125 C-11.53125 13.48828125 -11.53125 13.48828125 -11.40625 10.86328125 C-10.74625 10.20328125 -10.08625 9.54328125 -9.40625 8.86328125 C-5.90625 9.05078125 -5.90625 9.05078125 -2.40625 9.86328125 C0.09406654 13.61375607 0.12978554 15.42184391 -0.40625 19.86328125 C-2.43207856 22.93469874 -3.8875378 24.55020134 -7.56640625 25.30859375 C-11.53275506 25.50724227 -13.86146417 25.17624332 -17.34375 23.17578125 C-20.45842486 19.68357004 -21.24568076 17.10195826 -21.84375 12.48828125 C-21.27882422 7.80746762 -19.67361776 5.1996172 -16.40625 1.86328125 C-11.17785199 -1.73850405 -5.77545388 -2.72833941 0 0 Z " fill="#191919" transform="translate(236.40625,148.13671875)"/>
<path d="M0 0 C2.54685809 0.0785782 3.81954973 0.17584047 6.0625 1.4375 C7.566606 4.25769875 7.51162849 6.16860056 7.0625 9.3125 C5.4375 11.6875 5.4375 11.6875 3.0625 13.3125 C-0.59602292 13.92225382 -2.24262879 13.75793026 -5.375 11.75 C-6.9375 9.3125 -6.9375 9.3125 -6.8125 5.6875 C-5.56526038 0.87671861 -5.01226784 0.39779904 0 0 Z " fill="#222222" transform="translate(212.9375,354.6875)"/>
<path d="M0 0 C-0.62816498 3.94949704 -1.8645529 7.19892028 -3.5625 10.8125 C-4.01753906 11.78832031 -4.47257813 12.76414062 -4.94140625 13.76953125 C-5.29074219 14.50558594 -5.64007813 15.24164063 -6 16 C-9.84375 15.2109375 -9.84375 15.2109375 -11.25 13.3125 C-12.23965175 10.26107377 -12.45633454 8.19434177 -12 5 C-8.4762117 0.08805267 -5.9155397 -0.57995487 0 0 Z " fill="#F3F3F3" transform="translate(242,249)"/>
<path d="M0 0 C2.64 0 5.28 0 8 0 C8.34274406 1.66475686 8.67364302 3.33195323 9 5 C9.3403125 6.5778125 9.3403125 6.5778125 9.6875 8.1875 C9.790625 9.115625 9.89375 10.04375 10 11 C8 13 8 13 6.0546875 13.1953125 C4.03645833 13.13020833 2.01822917 13.06510417 0 13 C0 8.71 0 4.42 0 0 Z " fill="#0B0B0B" transform="translate(340,355)"/>
<path d="M0 0 C0.33 1.65 0.66 3.3 1 5 C0.05125 5.0825 -0.8975 5.165 -1.875 5.25 C-2.90625 5.4975 -3.9375 5.745 -5 6 C-6.03902231 7.80571581 -6.03902231 7.80571581 -7 10 C-8.12999515 11.60971007 -9.2988924 13.19263168 -10.5 14.75 C-11.1084375 15.54921875 -11.716875 16.3484375 -12.34375 17.171875 C-12.8903125 17.77515625 -13.436875 18.3784375 -14 19 C-14.66 19 -15.32 19 -16 19 C-15.54458599 11.71337577 -12.45839428 7.17212165 -8.0625 1.5 C-5.29573185 -0.51219502 -3.33747342 -0.30340667 0 0 Z " fill="#F0F0F0" transform="translate(449,310)"/>
<path d="M0 0 C0.33 1.32 0.66 2.64 1 4 C0.28199219 4.19335938 -0.43601562 4.38671875 -1.17578125 4.5859375 C-5.00611514 6.50375336 -6.75534841 9.18098504 -9.1875 12.625 C-10.74589993 14.80079254 -12.33171166 16.90356686 -14 19 C-14.66 19 -15.32 19 -16 19 C-15.68780117 11.6633275 -12.1878236 6.73716135 -7.50390625 1.24609375 C-5.15765422 -0.69794365 -2.92622244 -0.1950815 0 0 Z " fill="#F0F0F0" transform="translate(322,310)"/>
<path d="M0 0 C0.33 1.32 0.66 2.64 1 4 C0.28199219 4.19335938 -0.43601563 4.38671875 -1.17578125 4.5859375 C-5.00611514 6.50375336 -6.75534841 9.18098504 -9.1875 12.625 C-10.74589993 14.80079254 -12.33171166 16.90356686 -14 19 C-14.66 19 -15.32 19 -16 19 C-15.68780117 11.6633275 -12.1878236 6.73716135 -7.50390625 1.24609375 C-5.15765422 -0.69794365 -2.92622244 -0.1950815 0 0 Z " fill="#F0F0F0" transform="translate(169,310)"/>
<path d="M0 0 C0.99 0 1.98 0 3 0 C4.32 2.97 5.64 5.94 7 9 C8.32 6.36 9.64 3.72 11 1 C11.99 1 12.98 1 14 1 C14 5.29 14 9.58 14 14 C13.34 14 12.68 14 12 14 C11.67 12.02 11.34 10.04 11 8 C9.515 10.475 9.515 10.475 8 13 C7.01 12.67 6.02 12.34 5 12 C4.67 11.34 4.34 10.68 4 10 C3.67 11.32 3.34 12.64 3 14 C2.01 14 1.02 14 0 14 C0 9.38 0 4.76 0 0 Z " fill="#3E3E3E" transform="translate(77,354)"/>
<path d="M0 0 C0.99 0 1.98 0 3 0 C3.66 1.98 4.32 3.96 5 6 C5.66 4.02 6.32 2.04 7 0 C7.99 0.33 8.98 0.66 10 1 C11.1875 4.5625 11.1875 4.5625 12 8 C12.66 5.36 13.32 2.72 14 0 C14.66 0 15.32 0 16 0 C15.68991116 1.60463449 15.37683713 3.20869231 15.0625 4.8125 C14.88847656 5.70582031 14.71445312 6.59914063 14.53515625 7.51953125 C14 10 14 10 13 13 C12.01 13 11.02 13 10 13 C9.34 11.02 8.68 9.04 8 7 C7.34 8.98 6.68 10.96 6 13 C5.01 13 4.02 13 3 13 C2.01 8.71 1.02 4.42 0 0 Z " fill="#313131" transform="translate(257,355)"/>
<path d="M0 0 C1.53959889 4.61879668 -0.33927198 7.70295408 -2.1953125 12.0546875 C-4.67845788 16.10726676 -7.53677242 17.68761926 -11.79296875 19.62109375 C-14.57380208 21.35849935 -15.07860181 22.91666192 -16 26 C-17.109375 24.23046875 -17.109375 24.23046875 -18 22 C-16.09973025 15.66124305 -10.18236147 11.23062572 -5.3046875 7.17578125 C-2.95374933 4.95633623 -1.52027579 2.83685449 0 0 Z " fill="#EAEAEA" transform="translate(101,319)"/>
<path d="M0 0 C6 0 6 0 7.9375 1.125 C9.50503239 3.89123362 8.55217893 5.93233927 8 9 C8.83486387 11.80067065 8.83486387 11.80067065 10 14 C7.11562221 12.70700306 5.12780579 11.34058637 3 9 C3 10.65 3 12.3 3 14 C2.01 14 1.02 14 0 14 C0 9.38 0 4.76 0 0 Z " fill="#797979" transform="translate(296,354)"/>
<path d="M0 0 C6.75 0.75 6.75 0.75 9 3 C9.35877543 5.79844834 9.33812547 7.403308 7.9375 9.875 C4.88430685 11.64782183 2.33588292 10.69235306 -1 10 C-2.23076923 4.58461538 -2.23076923 4.58461538 -1.0625 1.625 C-0.5365625 0.820625 -0.5365625 0.820625 0 0 Z " fill="#EFEFEF" transform="translate(220,191)"/>
<path d="M0 0 C2 2 2 2 2.3125 4.4375 C2 7 2 7 0.9375 8.875 C-2.11569315 10.64782183 -4.66411708 9.69235306 -8 9 C-9.32561852 2.61292897 -9.32561852 2.61292897 -7.9375 0 C-5.02830946 -1.5015177 -3.0821738 -0.85251616 0 0 Z " fill="#F1F1F1" transform="translate(254,191)"/>
<path d="M0 0 C3.0625 0.3125 3.0625 0.3125 5 1.4375 C6.60193488 4.26444391 5.85834319 6.26176777 5.0625 9.3125 C4.0625 10.3125 4.0625 10.3125 0.625 10.5 C-2.9375 10.3125 -2.9375 10.3125 -4.9375 8.3125 C-5.1875 5.3125 -5.1875 5.3125 -4.9375 2.3125 C-2.9375 0.3125 -2.9375 0.3125 0 0 Z " fill="#F3F3F3" transform="translate(273.9375,244.6875)"/>
<path d="M0 0 C1 1 1 1 1.0625 3.5625 C1.041875 4.366875 1.02125 5.17125 1 6 C-0.32 6.33 -1.64 6.66 -3 7 C-2.34 5.35 -1.68 3.7 -1 2 C-3.31 2.66 -5.62 3.32 -8 4 C-8.32316568 7.55482252 -8.45553291 9.37575119 -6.3125 12.3125 C-3.80401508 14.14301602 -2.05917167 14.66009204 1 15 C1 15.66 1 16.32 1 17 C-2.83473284 17.35671933 -4.55342875 17.29771416 -7.8125 15.125 C-10.83584667 12.18803467 -10.96391701 11.44742902 -11.3125 7.125 C-11.25763374 4.11284251 -11.0583897 3.09575911 -9.4375 0.4375 C-5.99137846 -1.59482809 -3.79356604 -0.93049733 0 0 Z " fill="#121212" transform="translate(273,158)"/>
<path d="M0 0 C2.31 0 4.62 0 7 0 C8.125 5.75 8.125 5.75 7 8 C7.89363605 10.60931266 7.89363605 10.60931266 9 13 C5.66462511 11.88820837 4.36292656 10.52588702 2 8 C2 9.65 2 11.3 2 13 C1.34 13 0.68 13 0 13 C0 8.71 0 4.42 0 0 Z " fill="#0A0A0A" transform="translate(423,355)"/>
<path d="M0 0 C0.99 0 1.98 0 3 0 C3.67057887 1.7902061 4.3363469 3.58221489 5 5.375 C5.556875 6.87160156 5.556875 6.87160156 6.125 8.3984375 C7 11 7 11 7 13 C6.01 13 5.02 13 4 13 C4 12.01 4 11.02 4 10 C2.02 10 0.04 10 -2 10 C-2.33 10.99 -2.66 11.98 -3 13 C-3.66 13 -4.32 13 -5 13 C-4.54803755 11.39402675 -4.08817673 9.79027492 -3.625 8.1875 C-3.36976563 7.29417969 -3.11453125 6.40085937 -2.8515625 5.48046875 C-2 3 -2 3 0 0 Z " fill="#181818" transform="translate(283,355)"/>
<path d="M0 0 C0.99 0 1.98 0 3 0 C4.38671875 1.53125 4.38671875 1.53125 5.6875 3.5 C6.12449219 4.1496875 6.56148437 4.799375 7.01171875 5.46875 C7.33785156 5.9740625 7.66398438 6.479375 8 7 C8.33 4.69 8.66 2.38 9 0 C9.66 0 10.32 0 11 0 C11 4.29 11 8.58 11 13 C6.61364256 10.80682128 5.48743095 9.08649371 3 5 C2.67 7.64 2.34 10.28 2 13 C1.34 13 0.68 13 0 13 C0 8.71 0 4.42 0 0 Z " fill="#1A1A1A" transform="translate(142,355)"/>
<path d="M0 0 C3.3 0 6.6 0 10 0 C10 0.66 10 1.32 10 2 C7.36 2 4.72 2 2 2 C2 3.32 2 4.64 2 6 C3.98 6 5.96 6 8 6 C8 6.66 8 7.32 8 8 C6.02 8 4.04 8 2 8 C2 9.32 2 10.64 2 12 C4.64 12 7.28 12 10 12 C10 12.66 10 13.32 10 14 C6.7 14 3.4 14 0 14 C0 9.38 0 4.76 0 0 Z " fill="#2C2C2C" transform="translate(312,354)"/>
<path d="M0 0 C3.0625 0.1875 3.0625 0.1875 5.0625 2.1875 C4.49431818 7.75568182 4.49431818 7.75568182 3.0625 9.1875 C0.72305264 8.90019945 -1.6114143 8.56813221 -3.9375 8.1875 C-3.97991723 5.85455225 -3.97842937 3.52047433 -3.9375 1.1875 C-2.9375 0.1875 -2.9375 0.1875 0 0 Z " fill="#F6F6F6" transform="translate(212.9375,356.8125)"/>
<path d="M0 0 C0 0.66 0 1.32 0 2 C-0.969375 1.979375 -1.93875 1.95875 -2.9375 1.9375 C-5.87465895 1.64381501 -5.87465895 1.64381501 -7 3 C-7.04080783 4.99958364 -7.04254356 7.00045254 -7 9 C-4.525 9.99 -4.525 9.99 -2 11 C-2 10.01 -2 9.02 -2 8 C-2.99 8 -3.98 8 -5 8 C-5 7.34 -5 6.68 -5 6 C-3.02 6 -1.04 6 1 6 C1 7.98 1 9.96 1 12 C-1.79870027 13.39935013 -3.90498792 13.25265405 -7 13 C-8.875 11.9375 -8.875 11.9375 -10 10 C-10.36528977 6.5906288 -10.6140629 4.11976176 -8.9375 1.0625 C-5.98831309 -0.55479605 -3.29132441 -0.18630138 0 0 Z " fill="#1F1F1F" transform="translate(171,355)"/>
<path d="M0 0 C3.3 0 6.6 0 10 0 C10 0.99 10 1.98 10 3 C7.69 3 5.38 3 3 3 C3 3.99 3 4.98 3 6 C4.65 6 6.3 6 8 6 C8 6.66 8 7.32 8 8 C6.02 8 4.04 8 2 8 C2 9.98 2 11.96 2 14 C1.34 14 0.68 14 0 14 C0 9.38 0 4.76 0 0 Z " fill="#464646" transform="translate(226,354)"/>
<path d="M0 0 C4.64969101 2.90510874 7.8592835 5.45674367 9.58203125 10.87109375 C9.25203125 11.53109375 8.92203125 12.19109375 8.58203125 12.87109375 C6.58203125 11.87109375 6.58203125 11.87109375 4.83203125 8.49609375 C2.70071772 4.70188724 0.85900729 3.16225633 -3.41796875 1.87109375 C-5.75380263 1.92390391 -7.96432728 2.17076277 -10.26953125 2.546875 C-12.41796875 2.87109375 -12.41796875 2.87109375 -16.41796875 2.87109375 C-12.01028588 -1.95636845 -5.85493684 -2.73356502 0 0 Z " fill="#1E1E1E" transform="translate(236.41796875,148.12890625)"/>
<path d="M0 0 C0.763125 0.20625 1.52625 0.4125 2.3125 0.625 C2.6425 1.615 2.9725 2.605 3.3125 3.625 C0.3425 3.13 0.3425 3.13 -2.6875 2.625 C-2.6875 3.285 -2.6875 3.945 -2.6875 4.625 C-1.90375 4.91375 -1.12 5.2025 -0.3125 5.5 C2.3125 6.625 2.3125 6.625 4.3125 8.625 C3.9375 10.75 3.9375 10.75 3.3125 12.625 C-3.4375 13.75 -3.4375 13.75 -5.6875 12.625 C-5.6875 11.965 -5.6875 11.305 -5.6875 10.625 C-3.3775 10.955 -1.0675 11.285 1.3125 11.625 C0.9825 10.635 0.6525 9.645 0.3125 8.625 C-0.5125 8.33625 -1.3375 8.0475 -2.1875 7.75 C-3.0125 7.37875 -3.8375 7.0075 -4.6875 6.625 C-5.5 4 -5.5 4 -5.6875 1.625 C-2.6875 -0.375 -2.6875 -0.375 0 0 Z " fill="#2A2A2A" transform="translate(195.6875,354.375)"/>
<path d="M0 0 C0 0.66 0 1.32 0 2 C-1.0725 2.37125 -2.145 2.7425 -3.25 3.125 C-7.32323516 4.90600971 -9.04103184 6.93137382 -11 11 C-11.57788826 13.99718319 -11.86455891 16.95257546 -12 20 C-14.64 20 -17.28 20 -20 20 C-20 19.67 -20 19.34 -20 19 C-18.35 19 -16.7 19 -15 19 C-14.99742187 18.443125 -14.99484375 17.88625 -14.9921875 17.3125 C-14.65733281 10.70470074 -12.59567962 6.72856674 -8 2 C-3.76056338 -1.25352113 -3.76056338 -1.25352113 0 0 Z " fill="#2F2F2F" transform="translate(266,148)"/>
<path d="M0 0 C2.97 0 5.94 0 9 0 C9 0.33 9 0.66 9 1 C6.69 1 4.38 1 2 1 C2 2.32 2 3.64 2 5 C3.98 5 5.96 5 8 5 C8 5.66 8 6.32 8 7 C6.02 7 4.04 7 2 7 C2 8.32 2 9.64 2 11 C4.64 11 7.28 11 10 11 C10 11.66 10 12.32 10 13 C6.7 13 3.4 13 0 13 C0 8.71 0 4.42 0 0 Z " fill="#111111" transform="translate(406,355)"/>
<path d="M0 0 C2.97 0 5.94 0 9 0 C9 0.33 9 0.66 9 1 C6.69 1 4.38 1 2 1 C2 2.32 2 3.64 2 5 C3.98 5 5.96 5 8 5 C8 5.66 8 6.32 8 7 C6.02 7 4.04 7 2 7 C2 8.32 2 9.64 2 11 C4.64 11 7.28 11 10 11 C10 11.66 10 12.32 10 13 C6.7 13 3.4 13 0 13 C0 8.71 0 4.42 0 0 Z " fill="#111111" transform="translate(357,355)"/>
<path d="M0 0 C0.66 0 1.32 0 2 0 C2.33 0.99 2.66 1.98 3 3 C3.99 2.01 4.98 1.02 6 0 C6.99 0.33 7.98 0.66 9 1 C8.484375 1.391875 7.96875 1.78375 7.4375 2.1875 C5.71724173 3.93481451 5.71724173 3.93481451 6.1875 6.4375 C6.93348829 8.79023229 7.80334592 10.84602265 9 13 C5.83884224 11.63016497 5.0072908 11.0109362 3 8 C2.67 9.65 2.34 11.3 2 13 C1.34 13 0.68 13 0 13 C0 8.71 0 4.42 0 0 Z " fill="#202020" transform="translate(116,355)"/>
<path d="M0 0 C-1.65167557 3.5786304 -3.78286492 6.74820188 -6 10 C-6.99 9.67 -7.98 9.34 -9 9 C-9.36 2.64 -9.36 2.64 -7.875 0 C-5.06863762 -1.49672661 -2.99840718 -0.73294398 0 0 Z " fill="#0E0E0E" transform="translate(405,295)"/>
<path d="M0 0 C0.763125 0.0825 1.52625 0.165 2.3125 0.25 C2.3125 4.31702105 2.18930186 4.95421021 -0.0625 8 C-0.50335938 8.61359375 -0.94421875 9.2271875 -1.3984375 9.859375 C-1.82382813 10.31828125 -2.24921875 10.7771875 -2.6875 11.25 C-3.3475 11.25 -4.0075 11.25 -4.6875 11.25 C-6.01717033 4.96428571 -6.01717033 4.96428571 -4.5625 1.8125 C-2.6875 0.25 -2.6875 0.25 0 0 Z " fill="#0B0B0B" transform="translate(115.6875,293.75)"/>
<path d="M0 0 C0.763125 0.0825 1.52625 0.165 2.3125 0.25 C2.3125 4.31702105 2.18930186 4.95421021 -0.0625 8 C-0.50335938 8.61359375 -0.94421875 9.2271875 -1.3984375 9.859375 C-1.82382813 10.31828125 -2.24921875 10.7771875 -2.6875 11.25 C-3.3475 11.25 -4.0075 11.25 -4.6875 11.25 C-6.01717033 4.96428571 -6.01717033 4.96428571 -4.5625 1.8125 C-2.6875 0.25 -2.6875 0.25 0 0 Z " fill="#0B0B0B" transform="translate(99.6875,293.75)"/>
<path d="M0 0 C0.99 0 1.98 0 3 0 C3.625 1.875 3.625 1.875 4 4 C3.34 4.66 2.68 5.32 2 6 C1.67 5.67 1.34 5.34 1 5 C0.34 6.32 -0.32 7.64 -1 9 C0.65 9 2.3 9 4 9 C4.33 8.34 4.66 7.68 5 7 C7 10 7 10 7 13 C6.34 13 5.68 13 5 13 C4.67 12.34 4.34 11.68 4 11 C0.97065509 10.34227572 0.97065509 10.34227572 -2 10 C-2 10.99 -2 11.98 -2 13 C-2.99 12.67 -3.98 12.34 -5 12 C-3.35 8.04 -1.7 4.08 0 0 Z " fill="#171717" transform="translate(102,355)"/>
<path d="M0 0 C0.99 0 1.98 0 3 0 C3 4.29 3 8.58 3 13 C2.34 13 1.68 13 1 13 C0.67 11.02 0.34 9.04 0 7 C-1.485 9.475 -1.485 9.475 -3 12 C-3.99 11.67 -4.98 11.34 -6 11 C-5.38125 10.113125 -4.7625 9.22625 -4.125 8.3125 C-2.34602259 5.53938816 -1.08916398 3.0859646 0 0 Z " fill="#151515" transform="translate(88,355)"/>
<path d="M0 0 C-0.27105535 4.60794092 -2.28413477 6.77984246 -5.33203125 9.9609375 C-7 11 -7 11 -9.19921875 10.6640625 C-9.79347656 10.44492187 -10.38773438 10.22578125 -11 10 C-9.87970983 8.51726301 -8.75361382 7.03891114 -7.625 5.5625 C-6.99851563 4.73878906 -6.37203125 3.91507812 -5.7265625 3.06640625 C-3.81189263 0.77486697 -2.99331799 0 0 0 Z " fill="#ECECEC" transform="translate(222,310)"/>
<path d="M0 0 C0.99 0.33 1.98 0.66 3 1 C2.34 1.433125 1.68 1.86625 1 2.3125 C0.34 2.869375 -0.32 3.42625 -1 4 C-1 4.99 -1 5.98 -1 7 C-2.6396721 8.36639342 -4.31110128 9.6949419 -6 11 C-7.37368345 12.63356951 -8.71937515 14.2925002 -10 16 C-10.33 15.01 -10.66 14.02 -11 13 C-9.70703125 10.87890625 -9.70703125 10.87890625 -7.8125 8.5625 C-7.20019531 7.80066406 -6.58789062 7.03882813 -5.95703125 6.25390625 C-4.05753388 4.06626158 -2.07544859 2.02022601 0 0 Z " fill="#282828" transform="translate(277,308)"/>
<path d="M0 0 C2.125 0.375 2.125 0.375 4 1 C4.625 3.375 4.625 3.375 5 6 C4.34 6.66 3.68 7.32 3 8 C0.875 7.625 0.875 7.625 -1 7 C-1.625 4.625 -1.625 4.625 -2 2 C-1.34 1.34 -0.68 0.68 0 0 Z " fill="#E5E5E5" transform="translate(285,205)"/>
<path d="M0 0 C2.625 0.375 2.625 0.375 5 1 C5.042721 2.66611905 5.04063832 4.33382885 5 6 C4 7 4 7 1.4375 7.0625 C0.2309375 7.0315625 0.2309375 7.0315625 -1 7 C-1.625 4.625 -1.625 4.625 -2 2 C-1.34 1.34 -0.68 0.68 0 0 Z " fill="#E9E9E9" transform="translate(291,234)"/>
<path d="M0 0 C2.125 0.375 2.125 0.375 4 1 C5.125 4.75 5.125 4.75 4 7 C2.35 7 0.7 7 -1 7 C-1.625 4.625 -1.625 4.625 -2 2 C-1.34 1.34 -0.68 0.68 0 0 Z " fill="#ECECEC" transform="translate(230,217)"/>
<path d="M0 0 C3.63 0 7.26 0 11 0 C11 0.66 11 1.32 11 2 C9.68 2 8.36 2 7 2 C7 5.63 7 9.26 7 13 C6.34 13 5.68 13 5 13 C5 9.04 5 5.08 5 1 C3.35 1 1.7 1 0 1 C0 0.67 0 0.34 0 0 Z " fill="#212121" transform="translate(372,355)"/>
<path d="M0 0 C0.99 0 1.98 0 3 0 C3.84454356 3.37817425 4.10844919 5.67465243 3 9 C1.68 9 0.36 9 -1 9 C-1.625 6.1875 -1.625 6.1875 -2 3 C-1.34 2.01 -0.68 1.02 0 0 Z " fill="#626262" transform="translate(283,355)"/>
<path d="M0 0 C3.63 0 7.26 0 11 0 C11 0.66 11 1.32 11 2 C9.68 2 8.36 2 7 2 C7 5.63 7 9.26 7 13 C6.34 13 5.68 13 5 13 C5 9.04 5 5.08 5 1 C3.35 1 1.7 1 0 1 C0 0.67 0 0.34 0 0 Z " fill="#212121" transform="translate(241,355)"/>
<path d="M0 0 C6.09206361 -0.42014232 9.11941433 -0.06715472 14 4 C14.99 5.485 14.99 5.485 16 7 C13 7 13 7 10.3125 5.0625 C6.26885842 2.5447609 3.69406889 2.32372889 -1 2 C-0.67 1.34 -0.34 0.68 0 0 Z " fill="#0F0F0F" transform="translate(266,147)"/>
<path d="M0 0 C0.33 1.98 0.66 3.96 1 6 C-1.6666419 7.33332095 -3.16680303 6.67102033 -6 6 C-6 4.35 -6 2.7 -6 1 C-3.92446352 0.4465236 -2.15634036 0 0 0 Z " fill="#808080" transform="translate(430,355)"/>
<path d="M0 0 C2.875 -0.125 2.875 -0.125 6 0 C6.66 0.66 7.32 1.32 8 2 C7.835 2.928125 7.67 3.85625 7.5 4.8125 C6.94830219 8.32957355 7.43511253 9.87022506 9 13 C5.63279613 11.60667426 4.0140476 10.0210714 2 7 C2.99 6.34 3.98 5.68 5 5 C5 4.01 5 3.02 5 2 C3.35 1.67 1.7 1.34 0 1 C0 0.67 0 0.34 0 0 Z " fill="#181818" transform="translate(297,355)"/>
<path d="M0 0 C-0.33 1.65 -0.66 3.3 -1 5 C-3.31 4.67 -5.62 4.34 -8 4 C-8 2.68 -8 1.36 -8 0 C-4.71303767 -0.79953138 -3.28976808 -1.09658936 0 0 Z " fill="#898989" transform="translate(349,356)"/>
<path d="M0 0 C0.66 0 1.32 0 2 0 C2 4.29 2 8.58 2 13 C0.68 12.34 -0.64 11.68 -2 11 C-2 10.01 -2 9.02 -2 8 C-1.34 8 -0.68 8 0 8 C0 5.36 0 2.72 0 0 Z " fill="#090909" transform="translate(151,355)"/>
<path d="M0 0 C1.32 0 2.64 0 4 0 C3.67 3.3 3.34 6.6 3 10 C2.67 10 2.34 10 2 10 C1.67 8.35 1.34 6.7 1 5 C0.34 5.66 -0.32 6.32 -1 7 C-1.99 7.33 -2.98 7.66 -4 8 C-2.87548273 5.0280615 -1.77706209 2.66559313 0 0 Z " fill="#3F3F3F" transform="translate(125,321)"/>
<path d="M0 0 C6.875 0.875 6.875 0.875 8 2 C8.04063832 3.66617115 8.042721 5.33388095 8 7 C6.68 7.33 5.36 7.66 4 8 C4.66 6.35 5.32 4.7 6 3 C4.02 3 2.04 3 0 3 C0 2.01 0 1.02 0 0 Z " fill="#272727" transform="translate(266,157)"/>
<path d="M0 0 C3.125 0.375 3.125 0.375 6 1 C6 1.33 6 1.66 6 2 C4.35 2.33 2.7 2.66 1 3 C0.34 5.31 -0.32 7.62 -1 10 C-1.66 9.67 -2.32 9.34 -3 9 C-2.25 2.25 -2.25 2.25 0 0 Z " fill="#4A4A4A" transform="translate(209,355)"/>
<path d="M0 0 C0.66 0.33 1.32 0.66 2 1 C0.35 2.32 -1.3 3.64 -3 5 C-1.125 1.125 -1.125 1.125 0 0 Z M-4 5 C-3.67 5.99 -3.34 6.98 -3 8 C-4.9375 11.1875 -4.9375 11.1875 -7 14 C-7.66 13.67 -8.32 13.34 -9 13 C-7.8141763 9.62496331 -6.72426311 7.35277269 -4 5 Z " fill="#1F1F1F" transform="translate(415,309)"/>
<path d="M0 0 C0.66 0 1.32 0 2 0 C1.71125 0.639375 1.4225 1.27875 1.125 1.9375 C-0.3247725 5.88410292 -1.15778062 9.8874607 -2 14 C-2.66 13.67 -3.32 13.34 -4 13 C-4.45374191 7.32822615 -3.65083143 4.4024732 0 0 Z " fill="#141414" transform="translate(219,151)"/>
<path d="M0 0 C1.8871875 0.0309375 1.8871875 0.0309375 3.8125 0.0625 C3.8125 0.7225 3.8125 1.3825 3.8125 2.0625 C2.2301994 2.40070166 0.64660625 2.73285939 -0.9375 3.0625 C-2.26007813 3.3409375 -2.26007813 3.3409375 -3.609375 3.625 C-6.1875 4.0625 -6.1875 4.0625 -10.1875 4.0625 C-7.08842497 0.66827497 -4.52992189 -0.07426101 0 0 Z " fill="#252525" transform="translate(230.1875,146.9375)"/>
<path d="M0 0 C0.66 0 1.32 0 2 0 C0.68775452 3.93673644 -0.91910327 6.22719294 -4 9 C-4.66 8.67 -5.32 8.34 -6 8 C-6 6 -6 6 -3.5625 3.4375 C-2.716875 2.633125 -1.87125 1.82875 -1 1 C-0.67 0.67 -0.34 0.34 0 0 Z " fill="#212121" transform="translate(286,312)"/>
<path d="M0 0 C2.64 0.33 5.28 0.66 8 1 C8 2.32 8 3.64 8 5 C4.75791433 4.64950425 3.38472296 4.43778819 1.1875 1.9375 C0.795625 1.298125 0.40375 0.65875 0 0 Z " fill="#E8E8E8" transform="translate(363,325)"/>
<path d="M0 0 C0.99 0.33 1.98 0.66 3 1 C-2.14285714 6.57142857 -2.14285714 6.57142857 -6 7 C-6 6.01 -6 5.02 -6 4 C-3.5625 2.375 -3.5625 2.375 -1 1 C-0.67 0.67 -0.34 0.34 0 0 Z " fill="#2A2A2A" transform="translate(280,168)"/>
<path d="M0 0 C0.66 0 1.32 0 2 0 C1.42676569 3.86933162 -0.38953552 6.15222057 -3 9 C-3.66 9 -4.32 9 -5 9 C-3.7580393 5.56072421 -2.44259716 2.74792181 0 0 Z " fill="#1F1F1F" transform="translate(334,313)"/>
<path d="M0 0 C1.98 0 3.96 0 6 0 C6 1.98 6 3.96 6 6 C5.01 6 4.02 6 3 6 C3 4.68 3 3.36 3 2 C2.01 2 1.02 2 0 2 C0 1.34 0 0.68 0 0 Z " fill="#404040" transform="translate(166,361)"/>
<path d="M0 0 C0.66 0 1.32 0 2 0 C1.45912682 3.78611227 -0.11722332 5.55400767 -3 8 C-3.66 8 -4.32 8 -5 8 C-3.63055898 5.05043472 -2.12169591 2.47531189 0 0 Z " fill="#1A1A1A" transform="translate(354,317)"/>
<path d="M0 0 C1.32 0 2.64 0 4 0 C4 0.66 4 1.32 4 2 C1.35153397 4.36214538 -0.61516396 5.87172132 -4 7 C-2.79618552 4.50638429 -1.54571278 2.31856917 0 0 Z " fill="#282828" transform="translate(314,320)"/>
<path d="M0 0 C1.32 0 2.64 0 4 0 C4 0.66 4 1.32 4 2 C1.35153397 4.36214538 -0.61516396 5.87172132 -4 7 C-2.79618552 4.50638429 -1.54571278 2.31856917 0 0 Z " fill="#282828" transform="translate(161,320)"/>
<path d="M0 0 C1.65 0 3.3 0 5 0 C5 1.32 5 2.64 5 4 C3.35 4 1.7 4 0 4 C0 2.68 0 1.36 0 0 Z " fill="#F4F4F4" transform="translate(342,362)"/>
<path d="M0 0 C0 3 0 3 -1.25 4.6875 C-3 6 -3 6 -7 6 C-6 3 -6 3 -2.9375 1.3125 C-1.968125 0.879375 -0.99875 0.44625 0 0 Z " fill="#E7E7E7" transform="translate(437,338)"/>
<path d="M0 0 C0.66 0.33 1.32 0.66 2 1 C0.61918777 5.1424367 -1.59825558 6.32203099 -5 9 C-5 5 -5 5 -2.5 2.25 C-1.675 1.5075 -0.85 0.765 0 0 Z " fill="#1A1A1A" transform="translate(219,307)"/>
<path d="M0 0 C1.32 0.33 2.64 0.66 4 1 C3.67 2.32 3.34 3.64 3 5 C1.35 5 -0.3 5 -2 5 C-1.34 3.35 -0.68 1.7 0 0 Z " fill="#909090" transform="translate(103,359)"/>
<path d="M0 0 C-0.75 2.4375 -0.75 2.4375 -2 5 C-4.125 5.8125 -4.125 5.8125 -6 6 C-5.6875 4.125 -5.6875 4.125 -5 2 C-2 0 -2 0 0 0 Z " fill="#E2E2E2" transform="translate(95,338)"/>
<path d="M0 0 C-0.75 2.4375 -0.75 2.4375 -2 5 C-4.125 5.8125 -4.125 5.8125 -6 6 C-5.6875 4.125 -5.6875 4.125 -5 2 C-2 0 -2 0 0 0 Z " fill="#E2E2E2" transform="translate(79,338)"/>
<path d="M0 0 C0.99 0 1.98 0 3 0 C3.625 1.875 3.625 1.875 4 4 C3.34 4.66 2.68 5.32 2 6 C1.01 5.34 0.02 4.68 -1 4 C-0.67 2.68 -0.34 1.36 0 0 Z " fill="#2A2A2A" transform="translate(102,355)"/>
<path d="M0 0 C0.99 0.33 1.98 0.66 3 1 C0.525 4.465 0.525 4.465 -2 8 C-2.33 7.01 -2.66 6.02 -3 5 C-1.5625 2.3125 -1.5625 2.3125 0 0 Z " fill="#161616" transform="translate(370,310)"/>
<path d="M0 0 C0.66 0 1.32 0 2 0 C1.67 1.65 1.34 3.3 1 5 C-0.8125 5.625 -0.8125 5.625 -3 6 C-3.99 5.34 -4.98 4.68 -6 4 C-4.35 3.67 -2.7 3.34 -1 3 C-0.67 2.01 -0.34 1.02 0 0 Z " fill="#2F2F2F" transform="translate(348,362)"/>
<path d="M0 0 C2.89932357 2.39509338 3.50168276 4.31245243 4 8 C3.01 8 2.02 8 1 8 C0.67 5.36 0.34 2.72 0 0 Z " fill="#232323" transform="translate(286,360)"/>
<path d="M0 0 C0.66 0 1.32 0 2 0 C1.25 2.9375 1.25 2.9375 0 6 C-2.125 6.875 -2.125 6.875 -4 7 C-2.79618552 4.50638429 -1.54571278 2.31856917 0 0 Z " fill="#1B1B1B" transform="translate(193,317)"/>
<path d="M0 0 C-1.47540984 4.67213115 -1.47540984 4.67213115 -4 6.25 C-4.66 6.4975 -5.32 6.745 -6 7 C-6.99 7.495 -6.99 7.495 -8 8 C-6.48291727 4.46014029 -4.24676932 0 0 0 Z " fill="#CACACA" transform="translate(419,311)"/>
<path d="M0 0 C4.455 0.99 4.455 0.99 9 2 C8.67 2.66 8.34 3.32 8 4 C6.02 4 4.04 4 2 4 C1.34 2.68 0.68 1.36 0 0 Z " fill="#191919" transform="translate(208,364)"/>
<path d="M0 0 C3 4.38461538 3 4.38461538 3 7 C-0.68802044 5.77065985 -1.72356973 4.06140622 -4 1 C-2 0 -2 0 0 0 Z " fill="#1A1A1A" transform="translate(429,361)"/>
<path d="M0 0 C-0.6875 2.375 -0.6875 2.375 -2 5 C-4.625 6.3125 -4.625 6.3125 -7 7 C-3.86206897 0 -3.86206897 0 0 0 Z " fill="#BFBFBF" transform="translate(477,311)"/>
<path d="M0 0 C0.33 0.99 0.66 1.98 1 3 C-1.3431213 2.74438677 -3.67843403 2.40729228 -6 2 C-6.33 1.34 -6.66 0.68 -7 0 C-4.3333581 -1.33332095 -2.83319697 -0.67102033 0 0 Z " fill="#414141" transform="translate(198,355)"/>
</svg>
